# Exported from Wings 3D 1.5.4
mtllib oolite_dodo.mtl
o alt_mainhull.obj
#65 vertices, 118 faces
v -668.39900000 -210.67500000 -152.08200000
v -668.39900000 202.38500000 124.60100000
v -668.35800000 -221.13400000 -135.18800000
v -668.35800000 212.84400000 107.70600000
v -662.23800000 -229.58500000 -152.07600000
v -662.23800000 221.29500000 124.59500000
v -419.88600000 -562.78800000 124.58300000
v -419.88600000 554.49800000 -152.06500000
v -419.85100000 -128.80900000 -575.60000000
v -419.85100000 120.51900000 548.11500000
v -413.76000000 -147.70200000 -575.62000000
v -413.76000000 139.41200000 548.11500000
v -413.74800000 -571.26300000 107.70800000
v -413.74800000 562.97300000 -135.19000000
v -404.07500000 120.46600000 562.69400000
v -403.80200000 -574.52200000 124.60500000
v -403.80200000 566.23200000 -152.08700000
v -403.80200000 -134.02900000 -586.06100000
v -400.97100000 130.09500000 562.69400000
v -264.62100000 -351.02500000 548.11500000
v -264.62100000 342.73500000 -575.63300000
v -251.91000000 -341.76800000 562.69400000
v -248.51000000 337.49500000 -586.06100000
v -248.49800000 -362.68800000 548.11500000
v -248.49800000 354.39900000 -575.61400000
v -243.62500000 -347.76200000 562.69400000
v -9.93530000 -441.39300000 -575.62000000
v -9.93530000 433.10300000 548.11500000
v -9.93420000 -703.98200000 -152.08600000
v -9.93420000 695.69200000 124.60400000
v -6.14729000 419.50600000 561.18000000
v 0.0000000e+0 -707.15000000 -135.22900000
v 0.0000000e+0 -427.70300000 -586.06100000
v 0.0000000e+0 698.86000000 107.74700000
v 6.14729000 419.50600000 561.18000000
v 9.93420000 -703.98200000 -152.08600000
v 9.93420000 695.69200000 124.60400000
v 9.93530000 -441.39300000 -575.62000000
v 9.93530000 433.10300000 548.11500000
v 243.62500000 -347.76200000 562.69400000
v 248.49800000 -362.68800000 548.11500000
v 248.49800000 354.39900000 -575.61400000
v 248.51000000 337.49500000 -586.06100000
v 251.91000000 -341.76800000 562.69400000
v 264.62100000 -351.02500000 548.11500000
v 264.62100000 342.73500000 -575.63300000
v 400.97100000 130.09500000 562.69400000
v 403.80200000 -134.02900000 -586.06100000
v 403.80200000 -574.52200000 124.60500000
v 403.80200000 566.23200000 -152.08700000
v 404.07500000 120.46600000 562.69400000
v 413.74800000 -571.26300000 107.70800000
v 413.74800000 562.97300000 -135.19000000
v 413.76000000 -147.70200000 -575.62000000
v 413.76000000 139.41200000 548.11500000
v 419.85100000 -128.80900000 -575.60000000
v 419.85100000 120.51900000 548.11500000
v 419.88600000 -562.78800000 124.58300000
v 419.88600000 554.49800000 -152.06500000
v 662.23800000 -229.58500000 -152.07600000
v 662.23800000 221.29500000 124.59500000
v 668.35800000 -221.13400000 -135.18800000
v 668.35800000 212.84400000 107.70600000
v 668.39900000 -210.67500000 -152.08200000
v 668.39900000 202.38500000 124.60100000
vt 1.0788600e-3 2.1639400e-3
vt 1.0811200e-3 0.44437000
vt 1.2886100e-3 0.94036100
vt 1.2886100e-3 0.97929100
vt 1.8986000e-3 0.91996500
vt 1.8986000e-3 0.93816000
vt 1.8986000e-3 0.98142500
vt 1.8986000e-3 0.99909900
vt 2.1129900e-3 0.47136100
vt 2.1149900e-3 0.58933900
vt 5.4866100e-3 0.45466000
vt 5.5516900e-3 0.95900200
vt 5.5516900e-3 0.96069400
vt 1.6424100e-2 0.45466000
vt 1.8787600e-2 2.1639400e-3
vt 1.8787600e-2 0.44437000
vt 1.9800400e-2 0.47136100
vt 2.4044300e-2 1.2165800e-3
vt 2.4044300e-2 0.44342300
vt 4.2642600e-2 5.5947800e-3
vt 4.2642600e-2 0.43916000
vt 0.19400400 4.2321700e-3
vt 0.43911700 0.95900200
vt 0.43911700 0.96069400
vt 0.44349500 0.94036100
vt 0.44349500 0.97929100
vt 0.44405800 0.91991400
vt 0.44405800 0.93820400
vt 0.44410500 0.91996500
vt 0.44410500 0.93816000
vt 0.44416000 0.98134300
vt 0.44416000 0.99909900
vt 0.45946300 0.99023300
vt 0.45982100 0.92907200
vt 0.46183200 0.97931300
vt 0.46248700 0.98045000
vt 0.46248700 0.99818100
vt 0.46612900 0.96158100
vt 0.50104600 0.94978200
vt 0.51672900 0.94072700
vt 0.51672900 0.95892400
vt 0.54600900 0.93852400
vt 0.55027200 0.91988600
vt 0.80807500 4.2321700e-3
vt 0.85118600 1.3976700e-2
vt 0.85550700 3.2560600e-2
vt 0.86452200 3.2558300e-2
vt 0.86757300 8.2719600e-3
vt 0.86757700 8.2719600e-3
vt 0.86886500 1.3972400e-2
vt 0.87644800 2.3624700e-2
vt 0.87646300 2.3632700e-2
vt 0.87661800 2.6216300e-2
vt 0.87663600 2.5525600e-2
vt 0.88534100 8.2719600e-3
vt 0.88535500 8.2719600e-3
vt 0.88550500 1.0123400e-2
vt 0.88564900 4.1502800e-2
vt 0.88583000 8.2719600e-3
vt 0.89435200 2.6216300e-2
vt 0.89438400 2.5515000e-2
vt 0.89470300 2.3630100e-2
vt 0.89940800 0.96158100
vt 0.90339500 1.0456900e-2
vt 0.90353400 8.2719600e-3
vt 0.90370400 0.97931300
vt 0.90450500 0.98045000
vt 0.90450500 0.99818100
vt 0.91226500 2.5760500e-2
vt 0.92113100 1.0456900e-2
vt 0.92446000 9.3541100e-3
vt 0.92880700 2.7940000e-2
vt 0.93782100 2.7942300e-2
vt 0.94214300 9.3584300e-3
vt 0.95893600 0.94072700
vt 0.95893600 0.95892400
vt 0.98383700 0.91988600
vt 0.98821500 0.93852400
vt 0.99997000 0.58933900
vn -0.93416400 -0.30441573 -0.18619530
vn -1.00000000 -2.4038847e-8 3.5887588e-8
vn -0.85160392 0.27414196 -0.44678513
vn -0.80881354 -0.26368345 -0.52563456
vn -1.00000000 -2.4038847e-8 3.5887588e-8
vn -0.93416591 0.30441636 0.18618466
vn -1.00000000 -2.4038847e-8 3.5887588e-8
vn -0.85160179 -0.27414454 0.44678760
vn -0.80881143 0.26368276 0.52563815
vn -1.00000000 -2.4038847e-8 3.5887588e-8
vn -0.93416400 -0.30441573 -0.18619530
vn -0.85075976 -0.27585682 0.44733751
vn -0.85075976 -0.27585682 0.44733751
vn -0.80906721 -0.58771543 9.0548419e-4
vn -0.99999787 -1.1490991e-3 1.7154898e-3
vn -0.93416591 0.30441636 0.18618466
vn -0.99999787 1.1490510e-3 -1.7154181e-3
vn -0.85076097 0.27585612 -0.44733564
vn -0.85076097 0.27585612 -0.44733564
vn -0.80906719 0.58771545 -9.0544533e-4
vn -0.93416400 -0.30441573 -0.18619530
vn -0.80936058 -0.26211847 -0.52557526
vn -0.80906353 -0.58772051 8.9614862e-4
vn -0.52566760 -0.72305641 -0.44817743
vn -0.80936058 -0.26211847 -0.52557526
vn -0.80906353 -0.58772051 8.9614862e-4
vn -0.93416591 0.30441636 0.18618466
vn -0.80906352 0.58772052 -8.9612872e-4
vn -0.80927124 0.26236782 0.52558842
vn -0.52565133 0.72305820 0.44819363
vn -0.80927124 0.26236782 0.52558842
vn -0.80906352 0.58772052 -8.9612872e-4
vn -0.84897168 -0.27836752 0.44917548
vn -0.57905004 -0.79336191 0.18782418
vn -0.80906353 -0.58772051 8.9614862e-4
vn -0.49973589 -0.68741386 0.52699737
vn -0.84897168 -0.27836752 0.44917548
vn -0.80906353 -0.58772051 8.9614862e-4
vn -0.49973589 -0.68741386 0.52699737
vn -0.84898584 0.27835696 -0.44915526
vn -0.57905004 0.79336191 -0.18782418
vn -0.80906352 0.58772052 -8.9612872e-4
vn -0.49955545 0.68756404 -0.52697253
vn -0.84898584 0.27835696 -0.44915526
vn -0.80906352 0.58772052 -8.9612872e-4
vn -0.49955545 0.68756404 -0.52697253
vn -0.84986139 0.27695289 -0.44836672
vn -0.57822290 -0.18557486 -0.79449370
vn -0.49916533 0.16432940 -0.85078189
vn -0.80936058 -0.26211847 -0.52557526
vn -0.84986139 0.27695289 -0.44836672
vn -0.84986139 0.27695289 -0.44836672
vn -0.49916533 0.16432940 -0.85078189
vn -0.80936058 -0.26211847 -0.52557526
vn -0.84985126 -0.27696079 0.44838103
vn -0.66264563 0.21362173 0.71782068
vn -0.66274359 -0.21817184 0.71636023
vn -0.80927124 0.26236782 0.52558842
vn -0.84985126 -0.27696079 0.44838103
vn -0.84985126 -0.27696079 0.44838103
vn -0.66274359 -0.21817184 0.71636023
vn -0.66264563 0.21362173 0.71782068
vn -0.80927124 0.26236782 0.52558842
vn -0.52573712 -0.72301989 -0.44815479
vn -0.57822290 -0.18557486 -0.79449370
vn -0.80990540 -0.26055277 -0.52551451
vn -0.52573712 -0.72301989 -0.44815479
vn -0.30894284 -0.42479596 -0.85094225
vn -0.52572721 0.72301834 0.44816892
vn -0.80972948 0.26105236 0.52553766
vn -0.52572721 0.72301834 0.44816892
vn -0.66264761 0.21363397 0.71781521
vn -0.40913745 0.56256340 0.71842116
vn -0.52579740 -0.72297141 -0.44816228
vn -0.57905004 -0.79336191 0.18782418
vn -0.80905985 -0.58772559 8.8681304e-4
vn -0.52579740 -0.72297141 -0.44816228
vn -0.52579740 -0.72297141 -0.44816228
vn -0.31199829 -0.95008258 4.0337705e-4
vn -0.52579266 0.72296577 0.44817695
vn -0.57905004 0.79336191 -0.18782418
vn -0.80905985 0.58772559 -8.8681210e-4
vn -0.52579266 0.72296577 0.44817695
vn -0.52579266 0.72296577 0.44817695
vn -0.31199829 0.95008258 -4.0337705e-4
vn -0.66264364 0.21360950 0.71782615
vn -0.66274153 -0.21817102 0.71636239
vn -4.7674666e-3 -0.89364973 0.44873983
vn -0.57905004 -0.79336191 0.18782418
vn -0.31089528 -0.95044176 2.1415596e-3
vn -0.50133200 -0.68619639 0.52706805
vn -0.31089528 -0.95044176 2.1415596e-3
vn -4.7779773e-3 0.89365621 -0.44872680
vn -0.57905004 0.79336191 -0.18782418
vn -0.31089528 0.95044176 -2.1415596e-3
vn -0.50133800 0.68620464 -0.52705161
vn -0.31089528 0.95044176 -2.1415596e-3
vn -0.57822290 -0.18557486 -0.79449370
vn -0.30894005 -0.42479247 -0.85094500
vn 0.0000000e+0 0.0000000e+0 -1.00000000
vn -0.50041201 0.16480599 -0.84995694
vn -0.30894005 -0.42479247 -0.85094500
vn -0.66264563 0.21362173 0.71782068
vn -0.41145828 0.56538760 0.71486988
vn -0.66264563 0.21362173 0.71782068
vn -0.41145828 0.56538760 0.71486988
vn -0.84802628 -0.27916614 0.45046386
vn -0.66274566 -0.21817266 0.71635807
vn -0.49813775 -0.68862856 0.52692455
vn -0.40919499 -0.56567357 0.71594195
vn -0.84805439 0.27914387 -0.45042475
vn -0.35478176 0.49170569 -0.79520778
vn -0.49777038 0.68891998 -0.52689079
vn -0.49791742 0.16385241 -0.85160474
vn -0.66274359 -0.21817184 0.71636023
vn -0.40922038 -0.56566971 0.71593048
vn -0.40922038 -0.56566971 0.71593048
vn -0.66274359 -0.21817184 0.71636023
vn 0.0000000e+0 0.0000000e+0 -1.00000000
vn 0.0000000e+0 0.52572213 -0.85065636
vn -0.35478176 0.49170569 -0.79520778
vn -0.49916533 0.16432940 -0.85078189
vn 0.0000000e+0 0.0000000e+0 -1.00000000
vn 0.0000000e+0 0.52572213 -0.85065636
vn -0.49916533 0.16432940 -0.85078189
vn -2.3837408e-3 -0.89330972 0.44943527
vn -0.40922038 -0.56566971 0.71593048
vn 0.0000000e+0 -0.69874238 0.71537339
vn -0.49973589 -0.68741386 0.52699737
vn -2.3837408e-3 -0.89330972 0.44943527
vn -0.49973589 -0.68741386 0.52699737
vn -0.40922038 -0.56566971 0.71593048
vn 0.0000000e+0 -0.69874238 0.71537339
vn -2.3889962e-3 0.89331549 -0.44942378
vn -0.35478176 0.49170569 -0.79520778
vn -0.49955545 0.68756404 -0.52697253
vn -2.3889962e-3 0.89331549 -0.44942378
vn 0.0000000e+0 0.52572213 -0.85065636
vn -0.49955545 0.68756404 -0.52697253
vn -0.40924577 -0.56566586 0.71591901
vn 0.0000000e+0 -0.69874238 0.71537339
vn -0.52586230 -0.72292891 -0.44815470
vn -0.30894005 -0.42479247 -0.85094500
vn 0.0000000e+0 -0.84990456 -0.52693665
vn 0.0000000e+0 -0.60642988 -0.79513697
vn -0.52586230 -0.72292891 -0.44815470
vn 0.0000000e+0 -0.84990456 -0.52693665
vn -0.30894005 -0.42479247 -0.85094500
vn -0.52586332 0.72291955 0.44816861
vn 0.0000000e+0 0.84989175 0.52695732
vn 0.0000000e+0 0.69285962 0.72107250
vn -0.41145828 0.56538760 0.71486988
vn -0.52586332 0.72291955 0.44816861
vn -0.41145828 0.56538760 0.71486988
vn 0.0000000e+0 0.84989175 0.52695732
vn 0.0000000e+0 0.69285962 0.72107250
vn -0.31089528 -0.95044176 2.1415596e-3
vn 0.0000000e+0 -0.98279488 -0.18470037
vn -0.52591796 -0.72287444 -0.44817724
vn 0.0000000e+0 -0.84990456 -0.52693665
vn -0.31089528 -0.95044176 2.1415596e-3
vn -0.31089528 0.95044176 -2.1415596e-3
vn 0.0000000e+0 0.98279488 0.18470037
vn -0.52592355 0.72286060 0.44819300
vn 0.0000000e+0 0.84989175 0.52695732
vn -0.31089528 0.95044176 -2.1415596e-3
vn -0.41376842 0.56819711 0.71130004
vn 0.0000000e+0 0.69285962 0.72107250
vn 9.2519311e-18 -0.89342819 0.44920604
vn -0.30979091 -0.95079679 3.8797328e-3
vn 0.0000000e+0 -0.98279488 -0.18470037
vn 9.2519311e-18 -0.89342819 0.44920604
vn 9.2519311e-18 -0.89342819 0.44920604
vn 0.30979091 -0.95079679 3.8797328e-3
vn 8.2211578e-17 0.0000000e+0 -1.00000000
vn -0.30893725 -0.42478899 -0.85094776
vn 0.0000000e+0 -0.60642988 -0.79513697
vn 8.2211578e-17 0.0000000e+0 -1.00000000
vn 8.2211578e-17 0.0000000e+0 -1.00000000
vn 0.30893725 -0.42478899 -0.85094776
vn 8.9628086e-18 0.89343422 -0.44919405
vn -0.30979091 0.95079679 -3.8797328e-3
vn 0.0000000e+0 0.98279488 0.18470037
vn 8.9628086e-18 0.89343422 -0.44919405
vn 8.9628086e-18 0.89343422 -0.44919405
vn 0.30979091 0.95079679 -3.8797328e-3
vn 0.0000000e+0 0.69285962 0.72107250
vn 0.0000000e+0 0.69285962 0.72107250
vn 0.41376842 0.56819711 0.71130004
vn 0.31089528 -0.95044176 2.1415596e-3
vn 0.0000000e+0 -0.84990456 -0.52693665
vn 0.0000000e+0 -0.98279488 -0.18470037
vn 0.52591796 -0.72287444 -0.44817724
vn 0.31089528 -0.95044176 2.1415596e-3
vn 0.0000000e+0 -0.84990456 -0.52693665
vn 0.0000000e+0 0.84989175 0.52695732
vn 0.31089528 0.95044176 -2.1415596e-3
vn 0.0000000e+0 0.98279488 0.18470037
vn 0.52592355 0.72286060 0.44819300
vn 0.0000000e+0 0.84989175 0.52695732
vn 0.31089528 0.95044176 -2.1415596e-3
vn 0.52586230 -0.72292891 -0.44815470
vn 0.30894005 -0.42479247 -0.85094500
vn 0.0000000e+0 -0.84990456 -0.52693665
vn 0.0000000e+0 -0.60642988 -0.79513697
vn 0.52586230 -0.72292891 -0.44815470
vn 0.30894005 -0.42479247 -0.85094500
vn 0.52586332 0.72291955 0.44816861
vn 0.41145828 0.56538760 0.71486988
vn 0.0000000e+0 0.84989175 0.52695732
vn 0.0000000e+0 0.69285962 0.72107250
vn 0.52586332 0.72291955 0.44816861
vn 0.41145828 0.56538760 0.71486988
vn 0.40921594 -0.56566358 0.71593787
vn 0.0000000e+0 -0.69874238 0.71537339
vn 0.0000000e+0 -0.69874238 0.71537339
vn 0.40921594 -0.56566358 0.71593787
vn 0.0000000e+0 -0.69874238 0.71537339
vn 2.3837408e-3 -0.89330972 0.44943527
vn 2.3837408e-3 -0.89330972 0.44943527
vn 0.40920437 -0.56568654 0.71592634
vn 0.49808822 -0.68856010 0.52706083
vn 0.49955545 0.68756404 -0.52697253
vn 0.0000000e+0 0.52572213 -0.85065636
vn 0.35478176 0.49170569 -0.79520778
vn 2.3889962e-3 0.89331549 -0.44942378
vn 2.3889962e-3 0.89331549 -0.44942378
vn 0.49955545 0.68756404 -0.52697253
vn 0.0000000e+0 0.52572213 -0.85065636
vn 1.2331737e-16 0.0000000e+0 -1.00000000
vn 0.49916533 0.16432940 -0.85078189
vn 0.0000000e+0 0.52572213 -0.85065636
vn 0.35478176 0.49170569 -0.79520778
vn 1.2331737e-16 0.0000000e+0 -1.00000000
vn 0.49916533 0.16432940 -0.85078189
vn 0.66274359 -0.21817184 0.71636023
vn 0.40922751 -0.56564063 0.71594939
vn 0.66274359 -0.21817184 0.71636023
vn 0.84802628 -0.27916614 0.45046386
vn 0.40921594 -0.56566358 0.71593787
vn 0.49973595 -0.68741379 0.52699740
vn 0.40921594 -0.56566358 0.71593787
vn 0.49973595 -0.68741379 0.52699740
vn 0.66274566 -0.21817266 0.71635807
vn 0.84805439 0.27914387 -0.45042475
vn 0.35478176 0.49170569 -0.79520778
vn 0.49777038 0.68891998 -0.52689079
vn 0.49791742 0.16385241 -0.85160474
vn 0.66264563 0.21362173 0.71782068
vn 0.41145828 0.56538760 0.71486988
vn 0.66264563 0.21362173 0.71782068
vn 0.41145828 0.56538760 0.71486988
vn 0.50041201 0.16480599 -0.84995694
vn 0.30894005 -0.42479247 -0.85094500
vn 0.57822290 -0.18557486 -0.79449370
vn 2.4663473e-16 0.0000000e+0 -1.00000000
vn 0.30894005 -0.42479247 -0.85094500
vn 0.49973595 -0.68741379 0.52699740
vn 0.31089528 -0.95044176 2.1415596e-3
vn 0.57905004 -0.79336191 0.18782418
vn 4.7674666e-3 -0.89364973 0.44873983
vn 0.49973595 -0.68741379 0.52699740
vn 0.31089528 -0.95044176 2.1415596e-3
vn 0.50133800 0.68620464 -0.52705161
vn 0.31089528 0.95044176 -2.1415596e-3
vn 0.57905004 0.79336191 -0.18782418
vn 4.7779773e-3 0.89365621 -0.44872680
vn 0.31089528 0.95044176 -2.1415596e-3
vn 0.66274153 -0.21817102 0.71636239
vn 0.66264364 0.21360950 0.71782615
vn 0.52579740 -0.72297141 -0.44816228
vn 0.80906353 -0.58772051 8.9614805e-4
vn 0.31199829 -0.95008258 4.0337705e-4
vn 0.57905004 -0.79336191 0.18782418
vn 0.52579740 -0.72297141 -0.44816228
vn 0.52579740 -0.72297141 -0.44816228
vn 0.80906353 -0.58772051 8.9614805e-4
vn 0.52579266 0.72296577 0.44817695
vn 0.31199829 0.95008258 -4.0337705e-4
vn 0.57905004 0.79336191 -0.18782418
vn 0.52579266 0.72296577 0.44817695
vn 0.52579266 0.72296577 0.44817695
vn 0.80905985 0.58772559 -8.8681210e-4
vn 0.52573712 -0.72301989 -0.44815479
vn 0.30894284 -0.42479596 -0.85094225
vn 0.57822290 -0.18557486 -0.79449370
vn 0.52573712 -0.72301989 -0.44815479
vn 0.80990540 -0.26055277 -0.52551451
vn 0.52572721 0.72301834 0.44816892
vn 0.66264761 0.21363397 0.71781521
vn 0.40913745 0.56256340 0.71842116
vn 0.52572721 0.72301834 0.44816892
vn 0.80972948 0.26105236 0.52553766
vn 0.84986139 0.27695289 -0.44836672
vn 0.49916533 0.16432940 -0.85078189
vn 0.80936058 -0.26211847 -0.52557526
vn 0.57822290 -0.18557486 -0.79449370
vn 0.84986139 0.27695289 -0.44836672
vn 0.84986139 0.27695289 -0.44836672
vn 0.49916533 0.16432940 -0.85078189
vn 0.80936058 -0.26211847 -0.52557526
vn 0.84985126 -0.27696079 0.44838103
vn 0.66264563 0.21362173 0.71782068
vn 0.66274359 -0.21817184 0.71636023
vn 0.80927124 0.26236782 0.52558842
vn 0.84985126 -0.27696079 0.44838103
vn 0.84985126 -0.27696079 0.44838103
vn 0.66264563 0.21362173 0.71782068
vn 0.80927124 0.26236782 0.52558842
vn 0.66274359 -0.21817184 0.71636023
vn 0.84897168 -0.27836752 0.44917548
vn 0.50138166 -0.68626471 0.52693185
vn 0.57905004 -0.79336191 0.18782418
vn 0.84897168 -0.27836752 0.44917548
vn 0.80906030 -0.58772497 8.8633895e-4
vn 0.84898584 0.27835696 -0.44915526
vn 0.80906352 0.58772052 -8.9612872e-4
vn 0.49955545 0.68756404 -0.52697253
vn 0.57905004 0.79336191 -0.18782418
vn 0.84898584 0.27835696 -0.44915526
vn 0.80906352 0.58772052 -8.9612872e-4
vn 0.49955545 0.68756404 -0.52697253
vn 0.80936058 -0.26211847 -0.52557526
vn 0.80906676 -0.58771605 9.0595714e-4
vn 0.93416400 -0.30441573 -0.18619530
vn 0.52566760 -0.72305641 -0.44817743
vn 0.80936058 -0.26211847 -0.52557526
vn 0.80906352 0.58772052 -8.9612872e-4
vn 0.80927124 0.26236782 0.52558842
vn 0.93416591 0.30441636 0.18618466
vn 0.52565133 0.72305820 0.44819363
vn 0.80927124 0.26236782 0.52558842
vn 0.80906352 0.58772052 -8.9612872e-4
vn 1.00000000 -2.2171880e-8 3.9614431e-8
vn 0.80906353 -0.58772051 8.9614805e-4
vn 0.93416400 -0.30441573 -0.18619530
vn 0.85075976 -0.27585682 0.44733751
vn 0.85075976 -0.27585682 0.44733751
vn 1.00000000 -2.2171880e-8 3.9614431e-8
vn 0.80906353 -0.58772051 8.9614805e-4
vn 1.00000000 -2.2171880e-8 3.9614431e-8
vn 0.80906719 0.58771545 -9.0544533e-4
vn 0.93416591 0.30441636 0.18618466
vn 0.85076097 0.27585612 -0.44733564
vn 0.85076097 0.27585612 -0.44733564
vn 1.00000000 -2.2171880e-8 3.9614431e-8
vn 0.80881354 -0.26368345 -0.52563456
vn 0.93416400 -0.30441573 -0.18619530
vn 0.85160392 0.27414196 -0.44678513
vn 0.99999787 -1.0087702e-3 1.8023668e-3
vn 0.99999787 1.0087259e-3 -1.8022876e-3
vn 0.80881143 0.26368276 0.52563815
vn 0.93416591 0.30441636 0.18618466
vn 0.85160179 -0.27414454 0.44678760
g alt_mainhull.obj_Dodo_Hull
usemtl Dodo_Hull
s 1
f 1/64/1 5/70/21 3/69/11
f 2/64/6 6/70/27 4/69/16
f 3/79/13 10/22/60 2/44/8
f 4/79/18 9/22/51 1/44/3
f 7/39/37 10/22/59 3/79/12
f 8/39/44 9/22/52 4/79/19
f 9/64/48 18/70/98 11/69/65
f 11/22/67 13/39/77 5/10/24
f 13/69/75 16/64/89 7/70/34
f 13/39/78 27/44/146 29/79/159
f 14/69/81 17/64/94 8/70/41
f 16/79/88 32/39/169 24/44/126
f 20/10/107 10/22/55 7/39/33
f 21/10/111 9/22/47 8/39/40
f 21/69/112 25/64/135 23/70/121
f 23/22/123 33/39/178 18/10/100
f 24/44/130 32/39/173 41/22/220
f 27/44/142 13/39/74 11/22/64
f 28/1/155 37/16/200 30/2/165
f 29/34/158 36/28/192 32/27/171
f 33/33/177 38/32/205 27/31/145
f 33/39/179 43/44/234 48/79/256
f 37/30/201 50/5/268 34/29/186
f 38/22/206 52/39/275 36/10/193
f 39/15/210 37/16/196 28/1/150
f 42/30/228 59/5/322 46/29/247
f 43/44/230 33/39/175 23/22/119
f 48/53/255 56/60/297 54/58/286
f 49/10/261 41/22/219 32/39/172
f 50/6/264 59/5/318 42/30/223
f 52/39/276 54/44/287 60/79/326
f 52/57/274 58/61/313 49/54/260
f 53/6/279 50/5/265 37/30/197
f 53/5/283 61/29/333 59/6/321
f 54/44/284 52/39/271 38/22/202
f 57/30/309 61/5/332 55/29/293
f 59/6/317 61/29/328 63/30/342
f 60/49/325 64/55/348 62/51/336
f 65/6/352 61/5/329 57/30/305
s 2
f 1/75/2 2/41/7 4/40/17
f 1/76/4 9/41/54 5/75/25
f 2/40/9 10/75/63 6/41/31
f 3/76/15 2/41/10 1/75/5
f 5/40/26 7/76/38 3/41/14
f 5/75/22 9/41/50 11/40/66
f 6/76/32 8/40/45 4/75/20
f 6/41/29 10/75/58 12/76/70
f 7/41/36 24/75/129 20/76/109
f 8/41/43 25/75/136 21/76/113
f 9/76/53 23/40/125 18/75/101
f 10/19/61 22/20/118 15/21/87
f 13/75/76 7/76/35 5/40/23
f 13/76/79 29/41/161 16/75/92
f 14/41/82 8/40/42 6/76/28
f 14/40/85 30/75/166 17/41/97
f 16/40/91 24/75/131 7/41/39
f 16/75/90 29/41/157 32/40/170
f 17/40/96 25/75/139 8/41/46
f 17/41/95 30/75/162 34/76/182
f 18/40/102 27/76/148 11/41/68
f 19/43/106 28/78/154 12/42/73
f 20/18/108 22/20/115 10/19/57
f 21/41/114 23/40/122 9/76/49
f 23/37/120 42/67/224 43/68/232
f 24/66/133 40/38/216 26/63/141
f 25/36/138 42/67/229 23/37/124
f 27/31/147 36/8/195 29/7/160
f 31/77/167 28/78/152 19/43/104
f 33/75/176 27/76/143 18/40/99
f 33/30/180 48/6/257 38/29/207
f 36/5/194 49/30/263 32/6/174
f 38/32/204 36/8/191 27/31/144
f 38/29/203 48/6/254 54/5/285
f 39/22/212 53/39/282 37/10/199
f 41/35/218 40/38/215 24/66/128
f 45/79/239 58/39/311 57/44/302
f 46/79/245 59/39/316 56/44/294
f 47/47/249 57/45/303 55/50/290
f 51/46/270 57/45/308 47/47/251
f 52/29/273 49/30/259 36/5/190
f 53/39/281 55/44/292 61/79/331
f 53/52/280 59/48/319 50/56/266
f 55/44/289 53/39/278 39/22/208
f 56/44/298 63/10/344 64/22/349
f 57/44/307 62/10/338 65/22/354
f 61/61/330 65/54/353 63/57/343
f 62/10/337 57/44/306 58/39/314
f 63/10/345 56/44/299 59/39/320
s 3
f 10/74/62 19/72/105 12/71/72
f 12/22/71 14/39/84 6/10/30
f 14/39/83 28/44/153 30/79/164
f 15/73/86 19/72/103 10/74/56
f 17/79/93 34/39/181 25/44/134
f 20/71/110 24/74/132 22/72/117
f 22/72/116 24/74/127 26/73/140
f 25/44/137 34/39/185 42/22/227
f 28/44/149 14/39/80 12/22/69
f 28/9/151 35/14/187 39/17/211
f 30/62/163 37/59/198 34/65/183
f 31/11/168 35/14/188 28/9/156
f 40/46/214 45/50/240 44/47/237
f 41/45/221 45/50/242 40/46/217
f 42/54/225 46/57/246 43/61/233
f 50/10/267 42/22/226 34/39/184
f 52/30/277 62/5/340 58/29/315
f 56/5/301 60/30/327 54/6/288
f 60/6/324 62/5/335 52/30/272
f 62/29/334 63/6/341 65/5/351
f 64/29/347 60/30/323 56/5/296
f 64/30/350 63/6/346 62/29/339
s 4
f 35/23/189 47/12/252 39/25/213
f 39/25/209 47/12/250 55/3/291
f 41/30/222 49/6/262 45/29/243
f 43/6/231 56/29/295 48/30/253
f 44/24/236 57/4/304 51/13/269
f 45/29/241 49/6/258 58/5/312
f 45/26/244 57/4/310 44/24/238
f 46/5/248 56/29/300 43/6/235
