# Exported from Wings 3D 1.5.4
mtllib oolite_alt_boulder.mtl
o oolite_alt_boulder.obj
#42 vertices, 80 faces
v -1.25061000 69.55340000 -4.88172000
v 62.19930000 19.37740000 -6.76135000
v 48.88300000 29.62540000 -42.65680000
v 47.07810000 28.18670000 -12.70380000
v -0.22796300 28.42380000 -55.67740000
v -1.17688000 32.35910000 -20.01770000
v -37.02660000 32.50280000 -43.76450000
v -42.71280000 29.65900000 -10.59070000
v -58.75940000 4.07561000 -27.20380000
v 64.66990000 -24.16650000 -5.83993000
v 59.04800000 -17.69660000 -34.12680000
v 55.78850000 -34.46650000 -14.22680000
v 41.79230000 -30.86080000 -41.94210000
v 44.59060000 -6.50324000 -53.82050000
v 0.71415000 -20.48360000 -55.52200000
v -43.45540000 -29.57880000 -43.71220000
v -45.65680000 -6.55900000 -49.93700000
v -58.05340000 -25.55200000 -27.19450000
v -64.66990000 -17.16830000 -4.12622000
v 33.26560000 -50.34250000 -19.42420000
v 1.48594000 -47.78730000 -35.51410000
v -35.14460000 -49.71380000 -17.90010000
v 46.41020000 61.28320000 34.55990000
v 50.12470000 64.75540000 8.80357000
v 0.39439500 59.05630000 46.19460000
v -0.60138000 66.66200000 26.65400000
v -34.64660000 67.89700000 10.53550000
v -36.74000000 62.22430000 32.42950000
v -49.15270000 53.13800000 13.47610000
v 61.21340000 -1.64253000 17.43940000
v 57.24830000 -29.97790000 17.57440000
v 47.48500000 -8.27580000 40.86230000
v 8.05785000 -28.27050000 55.67740000
v -42.19830000 -5.25994000 44.15870000
v -57.03680000 -30.36450000 4.60187000
v -58.68140000 -12.59750000 24.24380000
v 43.43270000 -38.94920000 43.85500000
v 45.51970000 -57.55020000 19.05160000
v 8.45985000 -69.55340000 5.39249000
v 8.48452000 -55.69470000 36.77920000
v -23.20360000 -59.34890000 20.62710000
v -39.44050000 -36.87530000 41.94620000
vt -1.6000000e-4 0.22022000
vt 1.6050000e-2 8.8730000e-2
vt 5.5950000e-2 0.29909000
vt 7.1880000e-2 5.0400000e-3
vt 7.3220000e-2 0.25246000
vt 0.11155000 0.11913000
vt 0.15957000 9.8800000e-3
vt 0.17988000 0.31550000
vt 0.18336000 0.29057000
vt 0.21611000 0.15243000
vt 0.22118000 0.21522000
vt 0.23805000 0.14971000
vt 0.24274000 0.45525000
vt 0.26451000 0.30834000
vt 0.26483000 6.5870000e-2
vt 0.28618000 0.20441000
vt 0.29337000 0.13704000
vt 0.29620000 0.50524000
vt 0.30899000 4.4500000e-2
vt 0.31308000 0.43549000
vt 0.31795000 0.30647000
vt 0.41789000 0.56965000
vt 0.44783000 3.8400000e-3
vt 0.47135000 8.1010000e-2
vt 0.47730000 0.15335000
vt 0.48528000 0.51265000
vt 0.51357000 0.44139000
vt 0.52989000 0.30281000
vt 0.56490000 0.16765000
vt 0.57938000 0.39123000
vt 0.58319000 7.1040000e-2
vt 0.60339000 0.29496000
vt 0.63859000 0.21293000
vt 0.64588000 0.45431000
vt 0.64992000 0.38133000
vt 0.65832000 0.53328000
vt 0.67790000 0.28982000
vt 0.67999000 9.4050000e-2
vt 0.72136000 0.46554000
vt 0.73410000 0.17964000
vt 0.73491000 4.9860000e-2
vt 0.73640000 0.42714000
vt 0.74188000 0.35585000
vt 0.78034000 0.10978000
vt 0.78051000 0.27511000
vt 0.80201000 0.56016000
vt 0.80436000 0.43958000
vt 0.80827000 0.38182000
vt 0.81230000 0.16230000
vt 0.85298000 7.4610000e-2
vt 0.86209000 0.27615000
vt 0.86872000 0.14688000
vt 0.87069000 0.40080000
vt 0.92414000 8.2500000e-3
vt 0.94007000 0.47250000
vt 0.96851000 0.12314000
vt 0.99409000 0.27280000
vn -0.89889536 -6.4030366e-2 0.43345962
vn -0.30748025 0.44028045 -0.84356921
vn -7.1729703e-3 0.99578405 9.1447632e-2
vn -0.30748025 0.44028045 -0.84356921
vn 0.21982569 0.42304123 -0.87904083
vn 0.21982569 0.42304123 -0.87904083
vn 6.8903219e-2 0.99358436 8.9679760e-2
vn 0.48114886 0.87376213 7.0961411e-2
vn 0.99224878 0.11350768 -5.0580295e-2
vn 0.52692180 0.39782557 -0.75105808
vn 0.99224878 0.11350768 -5.0580295e-2
vn 0.99224878 0.11350768 -5.0580295e-2
vn 0.99224878 0.11350768 -5.0580295e-2
vn 0.19325997 0.98113599 4.7704523e-3
vn 0.73195061 0.17609980 -0.65820754
vn 0.19325997 0.98113599 4.7704523e-3
vn 0.19325997 0.98113599 4.7704523e-3
vn 0.73195061 0.17609980 -0.65820754
vn 0.73195061 0.17609980 -0.65820754
vn 0.21982569 0.42304123 -0.87904083
vn 0.21982569 0.42304123 -0.87904083
vn 0.28605747 0.95612850 6.3161860e-2
vn 0.28605747 0.95612850 6.3161860e-2
vn 0.52692180 0.39782557 -0.75105808
vn -3.0873710e-2 0.11872208 -0.99244742
vn 3.9949152e-2 0.99328760 -0.10855325
vn 3.9949152e-2 0.99328760 -0.10855325
vn -3.0873710e-2 0.11872208 -0.99244742
vn -3.0873710e-2 0.11872208 -0.99244742
vn -3.0873710e-2 0.11872208 -0.99244742
vn 2.7836565e-2 0.99937246 -2.1904390e-2
vn -0.22852242 0.36656566 -0.90189086
vn 0.17045555 0.37170202 -0.91256918
vn 2.7836565e-2 0.99937246 -2.1904390e-2
vn 2.7836565e-2 0.99937246 -2.1904390e-2
vn 2.7836565e-2 0.99937246 -2.1904390e-2
vn -0.77797251 0.26211369 -0.57101242
vn -0.81599538 0.57086187 -9.0930069e-2
vn 1.4046484e-2 0.99978648 -1.5155440e-2
vn -0.27999848 0.20989010 -0.93677478
vn 1.4046484e-2 0.99978648 -1.5155440e-2
vn -0.85886120 0.51034342 4.3669598e-2
vn -0.80238968 0.30545816 -0.51270470
vn -0.41644851 0.45990029 -0.78425912
vn -0.85886120 0.51034342 4.3669598e-2
vn -4.7199412e-2 0.99589143 7.7281793e-2
vn -0.41644851 0.45990029 -0.78425912
vn -0.41644851 0.45990029 -0.78425912
vn -0.85886120 0.51034342 4.3669598e-2
vn -0.92360168 -2.2128752e-2 -0.38271433
vn -0.92360168 -2.2128752e-2 -0.38271433
vn -0.77797251 0.26211369 -0.57101242
vn -0.85886120 0.51034342 4.3669598e-2
vn 0.73010672 -0.68046614 6.2530046e-2
vn 0.95387326 -0.13219575 0.26953679
vn 0.82758338 -0.48866414 -0.27624828
vn 0.99737011 5.5605258e-2 -4.6485648e-2
vn 0.99737011 5.5605258e-2 -4.6485648e-2
vn 0.66313144 -0.62235616 -0.41584792
vn 0.61416237 -0.40179930 -0.67923627
vn 0.92978094 9.2841247e-2 -0.35621330
vn 0.92978094 9.2841247e-2 -0.35621330
vn 0.82758338 -0.48866414 -0.27624828
vn 0.92978094 9.2841247e-2 -0.35621330
vn 0.59372320 -0.73530213 -0.32683870
vn 0.62712167 -0.66633289 -0.40338430
vn 0.62712167 -0.66633289 -0.40338430
vn 0.83818381 -0.54404046 3.8312997e-2
vn 0.83818381 -0.54404046 3.8312997e-2
vn 0.82758338 -0.48866414 -0.27624828
vn 0.14763856 -0.51808236 -0.84249245
vn 0.14763856 -0.51808236 -0.84249245
vn 0.23327923 -0.77735625 -0.58420720
vn 0.62712167 -0.66633289 -0.40338430
vn 0.62712167 -0.66633289 -0.40338430
vn 0.61416237 -0.40179930 -0.67923627
vn 0.40179740 0.12127387 -0.90766266
vn 0.40179740 0.12127387 -0.90766266
vn 0.17665871 -0.44775219 -0.87653276
vn 0.61416237 -0.40179930 -0.67923627
vn 0.40179740 0.12127387 -0.90766266
vn -9.3648064e-2 -9.5023375e-2 -0.99106034
vn -9.3648064e-2 -9.5023375e-2 -0.99106034
vn -9.3648064e-2 -9.5023375e-2 -0.99106034
vn -9.2862813e-2 -0.59023147 -0.80187487
vn 0.14763856 -0.51808236 -0.84249245
vn 0.14763856 -0.51808236 -0.84249245
vn -0.75588627 -0.23728756 -0.61018896
vn -0.19552690 -0.27337785 -0.94182471
vn -0.60379962 -0.71107539 -0.36027464
vn -0.16094188 -0.70719583 -0.68845608
vn -0.16094188 -0.70719583 -0.68845608
vn -0.82076573 -0.13030128 -0.55620608
vn -0.77797251 0.26211369 -0.57101242
vn -0.82076573 -0.13030128 -0.55620608
vn -0.20342617 -2.3514336e-2 -0.97880788
vn -0.20342617 -2.3514336e-2 -0.97880788
vn -0.20342617 -2.3514336e-2 -0.97880788
vn -0.87987323 -9.5555168e-2 -0.46550221
vn -0.87987323 -9.5555168e-2 -0.46550221
vn -0.73340675 -0.65855530 -0.16858071
vn -0.73340675 -0.65855530 -0.16858071
vn -0.87987323 -9.5555168e-2 -0.46550221
vn -0.73340675 -0.65855530 -0.16858071
vn -0.97050684 -9.7348654e-2 0.22054413
vn -0.88144327 0.43777218 0.17723792
vn -0.96317458 -2.3035696e-2 -0.26788821
vn -0.97050684 -9.7348654e-2 0.22054413
vn -0.84900764 -0.52577259 -5.2433011e-2
vn -0.80238968 0.30545816 -0.51270470
vn 0.17706512 -0.85602159 -0.48566961
vn 0.23327923 -0.77735625 -0.58420720
vn 0.38948284 -0.87486922 -0.28793570
vn 0.59372320 -0.73530213 -0.32683870
vn 0.58898846 -0.70805342 -0.38955481
vn -0.16094188 -0.70719583 -0.68845608
vn -0.16094188 -0.70719583 -0.68845608
vn 0.11759273 -0.58481328 -0.80259914
vn -0.16570530 -0.88203922 -0.44107661
vn 0.17706512 -0.85602159 -0.48566961
vn 0.23327923 -0.77735625 -0.58420720
vn -0.66258478 -0.71456469 -0.22445204
vn -0.66258478 -0.71456469 -0.22445204
vn -0.22400289 -0.80211037 -0.55357173
vn -0.65425847 -0.75614734 1.3677224e-2
vn -0.26597053 -0.92052813 -0.28616015
vn -0.26597053 -0.92052813 -0.28616015
vn 4.6009136e-2 0.93170209 0.36029763
vn 0.23995009 9.1276059e-2 0.96648468
vn 8.8263697e-2 0.98540278 0.14557086
vn 0.96920798 0.18325396 0.16448063
vn 0.85366294 6.0065098e-2 0.51735072
vn 0.26783350 0.47175873 -0.84006483
vn 6.8903219e-2 0.99358436 8.9679760e-2
vn 8.8263697e-2 0.98540278 0.14557086
vn 0.96554586 0.18504736 0.18297175
vn 0.52692180 0.39782557 -0.75105808
vn 0.96554586 0.18504736 0.18297175
vn -0.25624608 0.13941835 0.95650430
vn -0.25624608 0.13941835 0.95650430
vn -5.5864389e-2 0.92947782 0.36462329
vn 4.6009136e-2 0.93170209 0.36029763
vn 0.26565460 0.10994269 0.95777880
vn 0.26565460 0.10994269 0.95777880
vn -7.9905043e-2 0.96676787 0.24284785
vn -5.5864389e-2 0.92947782 0.36462329
vn -7.1729703e-3 0.99578405 9.1447632e-2
vn 6.8903219e-2 0.99358436 8.9679760e-2
vn 4.6009136e-2 0.93170209 0.36029763
vn 8.8263697e-2 0.98540278 0.14557086
vn -0.50218536 0.49694121 -0.70771413
vn -0.69657350 0.70791202 0.11681582
vn -7.9905043e-2 0.96676787 0.24284785
vn -0.50218536 0.49694121 -0.70771413
vn -7.1729703e-3 0.99578405 9.1447632e-2
vn -0.82713672 0.18447936 0.53085988
vn -0.82713672 0.18447936 0.53085988
vn -0.32731281 0.18744271 0.92613798
vn -0.69657350 0.70791202 0.11681582
vn -7.9905043e-2 0.96676787 0.24284785
vn -5.5864389e-2 0.92947782 0.36462329
vn -0.92644581 0.18773742 0.32627108
vn -0.92644581 0.18773742 0.32627108
vn -0.80238968 0.30545816 -0.51270470
vn -0.61312422 0.47717859 -0.62958660
vn -0.69657350 0.70791202 0.11681582
vn 0.97782659 0.14320770 0.15279635
vn 0.85366294 6.0065098e-2 0.51735072
vn 0.91815608 -0.12669322 0.37541741
vn 0.91815608 -0.12669322 0.37541741
vn 0.97782659 0.14320770 0.15279635
vn 0.97782659 0.14320770 0.15279635
vn 0.91053238 -0.10937241 0.39870850
vn 0.87239807 -0.35298243 0.33811981
vn 0.83818381 -0.54404046 3.8312997e-2
vn 0.83818381 -0.54404046 3.8312997e-2
vn 0.91053238 -0.10937241 0.39870850
vn 0.91053238 -0.10937241 0.39870850
vn 0.28727614 8.9511694e-2 0.95365616
vn 0.28727614 8.9511694e-2 0.95365616
vn 0.28727614 8.9511694e-2 0.95365616
vn 0.88233972 -9.7173357e-2 0.46047146
vn 0.85366294 6.0065098e-2 0.51735072
vn 0.88233972 -9.7173357e-2 0.46047146
vn -0.22336806 8.9160451e-5 0.97473417
vn -0.22336806 8.9160451e-5 0.97473417
vn -0.13350036 -0.56375513 0.81508148
vn 0.31070300 8.8547731e-2 0.94637358
vn 0.10392123 -0.56325779 0.81972010
vn 0.31070300 8.8547731e-2 0.94637358
vn -0.77511596 2.8094830e-2 0.63119405
vn -0.77511596 2.8094830e-2 0.63119405
vn -0.25952741 6.3084178e-2 0.96367314
vn -0.25952741 6.3084178e-2 0.96367314
vn -0.25952741 6.3084178e-2 0.96367314
vn -0.87296645 -0.39586814 0.28498771
vn -0.78307260 -0.61814404 -6.8521866e-2
vn -0.78307260 -0.61814404 -6.8521866e-2
vn -0.87296645 -0.39586814 0.28498771
vn -0.67613140 -0.72856092 0.10975117
vn -0.67613140 -0.72856092 0.10975117
vn 0.17761130 -0.67376548 0.71728259
vn 0.17761130 -0.67376548 0.71728259
vn 0.32971881 4.8429789e-2 0.94283618
vn 0.89294482 -7.4655014e-2 0.44393263
vn 0.87239807 -0.35298243 0.33811981
vn 0.14588753 -0.90504783 0.39950627
vn 0.24630416 -0.76531635 0.59466389
vn 0.38948284 -0.87486922 -0.28793570
vn 0.59372320 -0.73530213 -0.32683870
vn 0.87239807 -0.35298243 0.33811981
vn 0.92037854 -0.39081530 1.2912877e-2
vn -0.26597053 -0.92052813 -0.28616015
vn -0.26597053 -0.92052813 -0.28616015
vn 0.17706512 -0.85602159 -0.48566961
vn -9.9930956e-2 -0.91018453 0.40196757
vn 0.14588753 -0.90504783 0.39950627
vn 0.38948284 -0.87486922 -0.28793570
vn -0.13350036 -0.56375513 0.81508148
vn -0.16608878 -0.84035574 0.51596196
vn -0.16608878 -0.84035574 0.51596196
vn 0.14588753 -0.90504783 0.39950627
vn 0.17761130 -0.67376548 0.71728259
vn 0.17761130 -0.67376548 0.71728259
vn -0.67613140 -0.72856092 0.10975117
vn -0.67613140 -0.72856092 0.10975117
vn -0.35678487 -0.92630735 -0.12107539
vn -0.16608878 -0.84035574 0.51596196
vn -0.16608878 -0.84035574 0.51596196
vn -0.81706985 -0.28011785 0.50391553
vn -0.81706985 -0.28011785 0.50391553
vn -0.69092548 -0.69334673 0.20467605
vn -0.26149597 -9.0062294e-2 0.96099357
vn -0.13350036 -0.56375513 0.81508148
vn -0.22855152 -0.75183103 0.61847741
g oolite_alt_boulder.obj_Oolite_Boulder_alt
usemtl Oolite_Boulder_alt
s 1
f 4/5/24 24/9/137 2/3/10
f 7/56/37 17/52/94 9/50/52
f 10/39/54 31/34/176 12/42/69
f 13/48/76 14/53/80 11/47/60
f 16/49/90 22/40/123 18/44/104
f 18/44/101 35/38/197 19/41/109
f 19/23/110 29/17/164 8/19/43
f 20/43/112 21/45/121 13/48/73
f 21/45/119 39/37/214 22/40/127
f 22/40/122 35/38/198 18/44/102
f 23/20/132 32/27/183 30/26/168
f 24/13/135 26/14/150 23/20/130
f 27/11/153 28/16/160 26/14/145
f 31/34/175 38/35/212 12/42/68
f 33/28/187 42/29/234 40/32/219
f 38/35/207 40/32/222 39/37/217
f 39/37/213 41/33/227 22/40/126
s 2
f 1/10/6 24/9/133 4/5/21
f 1/8/3 27/11/155 26/14/147
f 4/5/20 6/6/33 1/10/5
f 10/39/56 12/42/70 11/47/63
f 12/42/65 38/35/210 20/43/114
f 13/48/72 15/51/87 14/53/79
f 13/48/71 21/45/118 15/51/86
f 16/49/88 18/44/103 17/52/95
f 17/52/93 18/44/100 9/50/51
f 18/44/99 19/41/107 9/50/50
f 19/23/108 36/24/1 29/17/162
f 20/43/111 39/37/215 21/45/120
f 25/21/143 32/27/179 23/20/129
f 25/21/144 33/28/188 32/27/180
f 26/14/146 28/16/161 25/21/141
f 28/16/157 36/24/1 34/25/192
f 29/17/163 36/24/1 28/16/156
f 33/28/190 37/30/204 32/27/181
f 35/38/196 36/31/1 19/41/105
f 35/38/199 42/29/231 36/31/1
f 36/31/1 42/29/230 34/25/191
f 37/30/206 38/35/211 31/34/174
f 40/32/221 41/33/229 39/37/216
f 40/32/220 42/29/235 41/33/228
s 3
f 1/8/7 26/14/148 24/13/134
f 3/1/17 4/5/23 2/3/8
f 3/1/16 6/6/36 4/5/22
f 5/2/27 6/6/35 3/1/14
f 5/2/26 7/4/41 6/6/34
f 7/4/39 8/7/46 6/6/31
f 12/42/67 13/48/75 11/47/59
f 12/42/66 20/43/115 13/48/74
f 15/51/85 21/45/117 16/49/92
f 21/45/116 22/40/124 16/49/91
f 22/40/125 41/33/226 35/38/201
f 23/20/128 26/14/149 25/21/142
f 25/21/140 34/25/194 33/28/185
f 27/12/152 29/17/166 28/16/159
f 28/16/158 34/25/193 25/21/139
f 30/36/170 31/34/178 10/39/55
f 30/36/169 32/27/184 31/34/177
f 32/27/182 37/30/205 31/34/173
f 33/28/189 40/32/223 37/30/202
f 34/25/195 42/29/233 33/28/186
f 37/30/203 40/32/224 38/35/208
f 38/35/209 39/37/218 20/43/113
f 41/33/225 42/29/232 35/38/200
s 4
f 2/46/9 11/47/62 3/55/19
f 2/46/12 30/36/172 10/39/57
f 3/55/15 14/53/78 5/57/30
f 5/57/25 17/52/97 7/56/40
f 6/6/32 8/7/48 1/10/4
f 7/56/38 9/50/53 8/54/45
f 8/7/47 27/15/154 1/10/2
f 8/19/44 29/17/165 27/12/151
f 9/50/49 19/41/106 8/54/42
f 10/39/58 11/47/64 2/46/13
f 11/47/61 14/53/81 3/55/18
f 14/53/77 15/51/84 5/57/29
f 15/51/83 17/52/98 5/57/28
f 16/49/89 17/52/96 15/51/82
f 23/20/131 30/26/167 24/18/136
f 24/18/138 30/26/171 2/22/11
