# Exported from Wings 3D 1.5.4
mtllib oolite_boulder.mtl
o oolite_boulder.obj
#42 vertices, 80 faces
v 58.20320000 25.14610000 -106.39100000
v 39.51230000 67.26320000 -81.02400000
v 16.67260000 42.10460000 -110.44400000
v -10.62430000 65.57800000 -78.59770000
v -24.14380000 23.16320000 -103.13000000
v 58.44790000 -23.89730000 -108.56300000
v 38.93930000 -71.43190000 -90.22430000
v 17.92730000 -43.54350000 -128.01200000
v 18.53080000 -0.41543000 -140.11600000
v -10.45990000 -71.58300000 -90.26250000
v -12.85880000 -10.88230000 -101.70600000
v 84.86100000 1.67547000 -61.29100000
v 78.83030000 42.45060000 -39.53090000
v 54.99670000 71.82860000 -21.54750000
v 14.31360000 70.40380000 -44.73760000
v -30.33180000 69.24430000 -15.67790000
v -51.05890000 39.03850000 -28.49650000
v 75.84150000 -36.61040000 -22.46840000
v 10.17530000 -71.82860000 -22.21470000
v -54.71070000 -0.80975000 -53.81770000
v -51.26590000 -37.69240000 -20.48020000
v 88.06730000 1.50173000 43.05440000
v 34.11460000 64.45960000 41.17550000
v -14.32890000 63.37310000 42.03770000
v -88.06730000 1.79131000 53.06980000
v 50.30650000 -62.37830000 7.68225000
v 31.53890000 -59.54160000 65.48670000
v -30.69310000 -62.58160000 7.10903000
v -13.75070000 -59.56300000 66.01910000
v -60.03840000 -35.29580000 69.90200000
v 82.46030000 0.67341000 71.76350000
v 46.21870000 19.70660000 109.20500000
v 73.07480000 45.13370000 70.82160000
v 8.98973000 5.96166000 140.11600000
v 8.61067000 53.16280000 93.99300000
v -28.73480000 19.14390000 110.25500000
v -52.50410000 42.83970000 77.22530000
v 69.13600000 -36.70540000 82.51880000
v 45.30550000 -25.62290000 120.36100000
v 8.92852000 -44.82700000 89.35280000
v -27.72480000 -25.72130000 121.59000000
v -63.19290000 -13.07630000 86.88300000
vt 6.5200000e-3 0.18583000
vt 4.6090000e-2 0.43463000
vt 8.1280000e-2 0.24574000
vt 0.11756000 0.51437000
vt 0.13547000 3.0700000e-2
vt 0.14322000 0.11802000
vt 0.15336000 0.45021000
vt 0.15400000 0.27727000
vt 0.18223000 0.18895000
vt 0.21027000 0.37630000
vt 0.22064000 0.24145000
vt 0.23350000 0.13520000
vt 0.26583000 0.19182000
vt 0.26649000 6.4790000e-2
vt 0.26796000 0.50864000
vt 0.29250000 0.35680000
vt 0.29279000 0.43947000
vt 0.30011000 0.27250000
vt 0.32759000 0.13535000
vt 0.33165000 5.8500000e-3
vt 0.35785000 0.24489000
vt 0.35832000 0.58694000
vt 0.37709000 0.38687000
vt 0.37774000 0.51153000
vt 0.38020000 9.4830000e-2
vt 0.39885000 0.44471000
vt 0.41412000 0.19585000
vt 0.45678000 0.34276000
vt 0.47962000 0.39485000
vt 0.48531000 0.46727000
vt 0.50419000 0.22290000
vt 0.53120000 7.9550000e-2
vt 0.53263000 0.36908000
vt 0.55168000 0.51883000
vt 0.57649000 0.26254000
vt 0.62238000 2.4800000e-3
vt 0.62682000 0.46368000
vt 0.62801000 0.19645000
vt 0.63025000 0.38511000
vt 0.64266000 8.0610000e-2
vt 0.70821000 0.39937000
vt 0.71572000 0.34119000
vt 0.71928000 0.23338000
vt 0.72900000 2.8350000e-2
vt 0.77469000 0.17221000
vt 0.80935000 0.34159000
vt 0.81514000 0.41627000
vt 0.82857000 9.3740000e-2
vt 0.88074000 0.26647000
vt 0.88575000 0.31679000
vn -3.0238907e-2 0.99953652 -3.5157196e-3
vn 4.3149782e-4 -0.99711986 7.5840636e-2
vn 0.99635800 -4.6773059e-2 7.1295224e-2
vn 9.1616803e-3 -0.79912775 0.60109143
vn 0.30757006 0.57138065 -0.76087108
vn 0.30757006 0.57138065 -0.76087108
vn 0.74373037 0.55472534 -0.37302136
vn 0.76232188 3.2430225e-2 -0.64638505
vn 0.76232188 3.2430225e-2 -0.64638505
vn 0.87929383 0.31885679 -0.35379754
vn 0.13139891 0.70071980 -0.70123184
vn -1.4313310e-2 0.99527063 -9.6080728e-2
vn -1.4313310e-2 0.99527063 -9.6080728e-2
vn 0.13139891 0.70071980 -0.70123184
vn 0.71662212 0.62794012 -0.30355220
vn 0.71662212 0.62794012 -0.30355220
vn -0.38317887 0.53494053 -0.75300238
vn 0.19040200 0.65528043 -0.73099564
vn -0.38317887 0.53494053 -0.75300238
vn 0.19040200 0.65528043 -0.73099564
vn 0.19040200 0.65528043 -0.73099564
vn -0.61205910 0.53299259 -0.58421106
vn -0.73789877 0.61975091 -0.26723437
vn -5.9301679e-2 0.99342693 -9.7909349e-2
vn -0.61205910 0.53299259 -0.58421106
vn -5.6378389e-2 0.77999229 -0.62324434
vn -5.9301679e-2 0.99342693 -9.7909349e-2
vn -0.63594302 0.48977847 -0.59640048
vn -0.63594302 0.48977847 -0.59640048
vn -0.73176659 -0.26875444 -0.62632955
vn -0.73176659 -0.26875444 -0.62632955
vn -0.63594302 0.48977847 -0.59640048
vn -0.63594302 0.48977847 -0.59640048
vn 0.55854246 -0.48799863 -0.67073665
vn 0.69102465 -6.0107265e-2 -0.72032774
vn 0.69102465 -6.0107265e-2 -0.72032774
vn 0.69102465 -6.0107265e-2 -0.72032774
vn 0.86199904 -0.44645495 -0.24007421
vn 0.86199904 -0.44645495 -0.24007421
vn 9.1438430e-2 -0.99526817 3.2867597e-2
vn 2.9186926e-3 -0.80382020 -0.59486517
vn 0.55854246 -0.48799863 -0.67073665
vn 9.1438430e-2 -0.99526817 3.2867597e-2
vn 0.70111019 -0.71288492 -1.5478891e-2
vn 0.86202697 -0.44640218 -0.24007206
vn -0.73529101 -0.16328062 -0.65778915
vn -0.73529101 -0.16328062 -0.65778915
vn 2.9186926e-3 -0.80382020 -0.59486517
vn 0.55854246 -0.48799863 -0.67073665
vn 0.51185377 -0.23876411 -0.82522568
vn -0.71074967 -0.26288171 -0.65247843
vn -0.73919294 -0.17237803 -0.65106038
vn -0.37808971 0.51862168 -0.76686356
vn 0.30205782 0.55438185 -0.77551392
vn 0.57931976 -0.10188272 -0.80870794
vn 0.57931976 -0.10188272 -0.80870794
vn -0.71920924 -0.68948686 -8.5708393e-2
vn -0.88138017 -0.12092495 -0.45666853
vn -0.73128374 -0.15415982 -0.66442369
vn -9.1145482e-2 -0.99554722 2.4046315e-2
vn -9.1145482e-2 -0.99554722 2.4046315e-2
vn 2.9186926e-3 -0.80382020 -0.59486517
vn -0.69568839 -0.51636258 -0.49938697
vn -0.73176659 -0.26875444 -0.62632955
vn -0.73176659 -0.26875444 -0.62632955
vn -0.88138017 -0.12092495 -0.45666853
vn -0.73529101 -0.16328062 -0.65778915
vn -0.73529101 -0.16328062 -0.65778915
vn 0.86651888 2.6398278e-2 -0.49844574
vn 0.86197111 -0.44650773 -0.24007636
vn 0.98649649 7.7611207e-2 -0.14422609
vn 0.98649649 7.7611207e-2 -0.14422609
vn 0.98649649 7.7611207e-2 -0.14422609
vn 0.74864419 0.63338513 -0.19584471
vn 0.74864419 0.63338513 -0.19584471
vn 0.74864419 0.63338513 -0.19584471
vn 0.95716816 0.26529898 -0.11595503
vn 0.95716816 0.26529898 -0.11595503
vn 0.95716816 0.26529898 -0.11595503
vn -3.7602133e-2 0.99928234 4.5706507e-3
vn -3.7602133e-2 0.99928234 4.5706507e-3
vn 0.30174929 0.93003377 0.20972495
vn 0.74044862 0.66408933 -0.10354328
vn 0.74044862 0.66408933 -0.10354328
vn -0.77105022 0.62542138 -0.11970657
vn -0.77105022 0.62542138 -0.11970657
vn -0.32770100 0.92647009 0.18510866
vn -0.77105022 0.62542138 -0.11970657
vn -2.3027134e-2 0.99972466 4.5122669e-3
vn -2.3027134e-2 0.99972466 4.5122669e-3
vn -0.86345727 0.35785173 -0.35550484
vn -0.77320480 0.60761418 -0.18154707
vn -0.86345727 0.35785173 -0.35550484
vn -0.86345727 0.35785173 -0.35550484
vn -0.77320480 0.60761418 -0.18154707
vn 0.71921994 -0.69461006 1.5476900e-2
vn 0.71921994 -0.69461006 1.5476900e-2
vn 0.86199904 -0.44645495 -0.24007421
vn 0.86199904 -0.44645495 -0.24007421
vn 0.94480261 -0.32733614 1.4109741e-2
vn 0.94480261 -0.32733614 1.4109741e-2
vn -0.89348645 0.29631656 -0.33745883
vn -0.81235288 -0.43097567 -0.39286484
vn -0.81235288 -0.43097567 -0.39286484
vn -0.89348645 0.29631656 -0.33745883
vn -0.75193469 -0.27431542 -0.59945414
vn -0.74794936 -0.66041724 -6.6489279e-2
vn -0.81235288 -0.43097567 -0.39286484
vn -0.81235288 -0.43097567 -0.39286484
vn -0.74794936 -0.66041724 -6.6489279e-2
vn -0.74794936 -0.66041724 -6.6489279e-2
vn -0.88138017 -0.12092495 -0.45666853
vn -4.1594962e-2 0.99176063 0.12116398
vn -4.1594962e-2 0.99176063 0.12116398
vn 0.26407641 0.92916829 0.25866956
vn -4.1594962e-2 0.99176063 0.12116398
vn 0.26407641 0.92916829 0.25866956
vn -0.32770100 0.92647009 0.18510866
vn -0.23546844 0.92870177 0.28647450
vn -1.8433536e-3 0.99248792 0.12232876
vn -1.8433536e-3 0.99248792 0.12232876
vn -1.8433536e-3 0.99248792 0.12232876
vn -0.80800223 -0.42586889 0.40714627
vn -0.78317296 -0.61894072 -5.9602792e-2
vn -0.91722146 0.27012158 -0.29281246
vn -0.78103066 0.62288599 -4.4767651e-2
vn -0.72443486 0.24947325 0.64261748
vn -0.90282021 -0.33169043 -0.27367340
vn -0.78103066 0.62288599 -4.4767651e-2
vn 0.16820497 -0.98211017 8.4656404e-2
vn 0.16820497 -0.98211017 8.4656404e-2
vn 0.71921994 -0.69461006 1.5476900e-2
vn 0.44632850 -0.87493092 0.18784767
vn 0.71921994 -0.69461006 1.5476900e-2
vn 3.8684787e-3 -0.84956818 0.52746464
vn 7.9995666e-2 -0.98964680 0.11916337
vn 7.9995666e-2 -0.98964680 0.11916337
vn 3.8684787e-3 -0.84956818 0.52746464
vn 0.38259683 -0.86733707 0.31834897
vn 0.38259683 -0.86733707 0.31834897
vn -0.72948979 -0.68041493 -6.9858260e-2
vn -0.72948979 -0.68041493 -6.9858260e-2
vn -0.44586869 -0.87817580 0.17322925
vn -0.16953125 -0.98277021 7.3633371e-2
vn -0.16953125 -0.98277021 7.3633371e-2
vn -0.42525492 -0.85748121 0.28962774
vn -0.42525492 -0.85748121 0.28962774
vn -7.6446576e-2 -0.99019478 0.11691973
vn 1.1166256e-2 -0.85031799 0.52615076
vn 1.1166256e-2 -0.85031799 0.52615076
vn -7.6446576e-2 -0.99019478 0.11691973
vn -0.75235515 -0.46410395 0.46751390
vn -0.76175512 -0.64536831 -5.6823214e-2
vn -0.75235515 -0.46410395 0.46751390
vn -0.42525492 -0.85748121 0.28962774
vn -0.76175512 -0.64536831 -5.6823214e-2
vn -0.42525492 -0.85748121 0.28962774
vn 0.74846531 0.15831641 0.64399968
vn 0.74846531 0.15831641 0.64399968
vn 0.82073200 -0.13266883 0.55569592
vn 0.98086734 -4.0604718e-2 0.19039571
vn 0.98086734 -4.0604718e-2 0.19039571
vn 0.32043914 0.66633709 0.67328571
vn 0.58741366 0.18222419 0.78850462
vn 0.74846531 0.15831641 0.64399968
vn 0.32043914 0.66633709 0.67328571
vn 0.74846531 0.15831641 0.64399968
vn 0.26407641 0.92916829 0.25866956
vn 0.26407641 0.92916829 0.25866956
vn 0.32390289 0.66849814 0.66947528
vn 0.75005682 0.17186584 0.63865241
vn 0.78399243 0.62023362 2.5809290e-2
vn 0.95980593 0.25451112 0.11830752
vn 0.95980593 0.25451112 0.11830752
vn -0.30772299 0.66371288 0.68175639
vn -0.56780751 0.18959431 0.80102973
vn 1.1090106e-2 -0.70689269 0.70723386
vn 1.1090106e-2 -0.70689269 0.70723386
vn 0.31696540 0.66415526 0.67707513
vn 0.58741366 0.18222419 0.78850462
vn -0.23546844 0.92870177 0.28647450
vn -0.30409865 0.66152372 0.68550009
vn -0.30409865 0.66152372 0.68550009
vn -1.8397802e-2 0.97949744 0.20061477
vn 0.22539592 0.92475750 0.30662720
vn 0.32043914 0.66633709 0.67328571
vn 0.32043914 0.66633709 0.67328571
vn -0.64125829 0.20383470 0.73975619
vn -0.64125829 0.20383470 0.73975619
vn -0.30409865 0.66152372 0.68550009
vn -0.30409865 0.66152372 0.68550009
vn -0.64125829 0.20383470 0.73975619
vn -0.70859965 0.24945611 0.66004408
vn -0.70859965 0.24945611 0.66004408
vn -0.75721963 0.65314185 4.9153142e-3
vn -0.32770100 0.92647009 0.18510866
vn -0.23546844 0.92870177 0.28647450
vn -0.30046459 0.65931344 0.68922189
vn 0.38259683 -0.86733707 0.31834897
vn 0.38259683 -0.86733707 0.31834897
vn 0.73616442 -0.67520980 4.6407615e-2
vn 0.82073200 -0.13266883 0.55569592
vn 0.93273733 -0.34091213 0.11738823
vn 0.93273733 -0.34091213 0.11738823
vn -0.11293966 -0.77996676 0.61554568
vn -0.11293966 -0.77996676 0.61554568
vn 0.31077325 -0.84139906 0.44211719
vn 0.58741366 0.18222419 0.78850462
vn 0.74671310 0.14473298 0.64920869
vn 0.82073200 -0.13266883 0.55569592
vn -0.61358783 0.18040623 0.76874155
vn -0.69053668 -0.49853208 0.52404662
vn -0.39851672 -0.82443733 0.40185508
vn -0.61358783 0.18040623 0.76874155
vn 0.13244102 -0.77932775 0.61246031
vn 0.13244102 -0.77932775 0.61246031
vn -0.75235515 -0.46410395 0.46751390
vn -0.69262839 0.22353364 0.68578322
vn -0.69262839 0.22353364 0.68578322
vn -0.69262839 0.22353364 0.68578322
vn -0.75235515 -0.46410395 0.46751390
g oolite_boulder.obj_Oolite_Boulder
usemtl Oolite_Boulder
s 1
f 2/9/15 13/3/74 1/6/7
f 2/9/16 14/8/83 13/3/75
f 3/12/17 5/19/32 4/13/25
f 3/12/19 9/14/53 5/19/33
f 5/19/29 17/21/94 4/13/22
f 5/19/28 20/27/105 17/21/93
f 6/44/38 18/45/98 7/40/45
f 7/40/41 10/32/62 8/36/48
f 10/32/58 21/31/112 11/25/66
f 12/48/70 18/45/99 6/44/39
f 14/8/84 33/7/172 13/3/76
f 16/18/87 37/23/196 24/16/118
f 20/27/102 25/28/125 17/21/91
f 27/42/135 40/41/4 29/39/150
f 30/33/152 42/29/217 25/28/123
f 31/50/160 39/47/210 38/46/202
f 32/15/163 35/17/186 34/24/179
f 33/7/170 35/17/187 32/15/166
f 34/24/178 40/34/4 39/22/205
f 34/24/177 41/30/216 40/34/4
f 39/47/206 40/41/4 27/42/138
f 40/37/4 41/30/215 29/39/149
f 41/30/212 42/29/221 30/33/154
s 2
f 1/6/6 3/12/21 2/9/14
f 1/6/5 9/14/54 3/12/20
f 3/12/18 4/13/26 2/9/11
f 4/13/23 17/21/95 16/18/88
f 7/40/42 8/36/49 6/44/34
f 8/20/47 11/25/68 9/14/52
f 10/32/59 11/25/67 8/20/46
f 11/25/63 21/31/109 20/27/104
f 17/21/92 25/28/126 16/18/85
f 21/31/108 25/28/128 20/27/103
f 23/10/117 33/7/169 14/8/82
f 23/10/115 35/17/185 33/7/168
f 25/28/129 37/23/195 16/18/86
f 26/43/133 38/46/200 27/42/140
f 29/39/147 30/33/157 28/35/143
f 29/39/146 41/30/213 30/33/155
f 31/4/159 33/7/171 32/15/167
f 32/15/165 39/22/209 31/4/158
f 35/17/183 36/26/191 34/24/175
f 35/17/182 37/23/198 36/26/190
f 38/46/199 39/47/207 27/42/139
s 3
f 1/6/9 12/1/69 6/5/37
f 2/9/13 15/11/1 14/8/80
f 4/13/27 15/11/1 2/9/12
f 4/13/24 16/18/89 15/11/1
f 6/5/36 9/14/56 1/6/8
f 7/40/40 19/38/2 10/32/61
f 7/40/43 26/43/131 19/38/2
f 8/20/50 9/14/55 6/5/35
f 9/14/51 11/25/65 5/19/31
f 11/25/64 20/27/106 5/19/30
f 15/11/1 23/10/116 14/8/81
f 15/11/1 24/16/121 23/10/113
f 16/18/90 24/16/120 15/11/1
f 19/38/2 28/35/145 10/32/60
f 19/38/2 29/39/148 28/35/144
f 24/16/122 35/17/184 23/10/114
f 25/28/127 42/29/218 37/23/193
f 26/43/130 27/42/137 19/38/2
f 27/42/136 29/39/151 19/38/2
f 34/24/180 39/22/208 32/15/164
f 36/26/192 41/30/214 34/24/176
f 36/26/189 42/29/220 41/30/211
f 37/23/194 42/29/219 36/26/188
s 4
f 10/32/57 28/35/142 21/31/111
f 18/45/96 26/43/132 7/40/44
f 18/45/97 38/46/201 26/43/134
f 21/31/107 30/33/153 25/28/124
f 24/16/119 37/23/197 35/17/181
f 28/35/141 30/33/156 21/31/110
s 5
f 1/6/10 13/3/78 12/1/71
f 12/48/73 22/49/3 18/45/101
f 13/3/79 22/2/3 12/1/72
f 13/3/77 33/7/173 22/2/3
f 22/2/3 33/7/174 31/4/162
f 22/49/3 38/46/204 18/45/100
f 31/50/161 38/46/203 22/49/3
