# Exported from Wings 3D 1.5.4
mtllib oolite_coriolis.mtl
o oolite_coriolis.obj
#48 vertices, 50 faces
v -500.00000000 -492.92900000 0.0000000e+0
v -500.00000000 0.0000000e+0 492.92900000
v -500.00000000 0.0000000e+0 -492.92900000
v -500.00000000 492.92900000 0.0000000e+0
v -495.91800000 -495.91800000 8.16497000
v -495.91800000 -8.16497000 495.91800000
v -495.91800000 -8.16497000 -495.91800000
v -495.91800000 8.16497000 495.91800000
v -495.91800000 8.16497000 -495.91800000
v -495.91800000 495.91800000 -8.16497000
v -492.92900000 -500.00000000 0.0000000e+0
v -492.92900000 0.0000000e+0 -500.00000000
v -492.92900000 500.00000000 0.0000000e+0
v -8.16497000 -495.91800000 495.91800000
v -8.16497000 -495.91800000 -495.91800000
v -8.16497000 495.91800000 495.91800000
v 0.0000000e+0 -500.00000000 492.92900000
v 0.0000000e+0 -500.00000000 -492.92900000
v 0.0000000e+0 -492.92900000 -500.00000000
v 0.0000000e+0 492.92900000 -500.00000000
v 0.0000000e+0 500.00000000 492.92900000
v 0.0000000e+0 500.00000000 -492.92900000
v 8.16497000 -495.91800000 495.91800000
v 8.16497000 -495.91800000 -495.91800000
v 8.16497000 495.91800000 495.91800000
v 8.16497000 495.91800000 -495.91800000
v 492.92900000 -500.00000000 0.0000000e+0
v 492.92900000 0.0000000e+0 -500.00000000
v 492.92900000 500.00000000 0.0000000e+0
v 495.91800000 -495.91800000 8.16497000
v 495.91800000 -495.91800000 -8.16497000
v 495.91800000 -8.16497000 495.91800000
v 495.91800000 8.16497000 495.91800000
v 495.91800000 8.16497000 -495.91800000
v 495.91800000 495.91800000 8.16497000
v 495.91800000 495.91800000 -8.16497000
v 500.00000000 -492.92900000 0.0000000e+0
v 500.00000000 0.0000000e+0 492.92900000
v 500.00000000 0.0000000e+0 -492.92900000
v 500.00000000 492.92900000 0.0000000e+0
v -8.16497000 495.91800000 -495.91800000
v -495.91800000 495.91800000 8.16497000
v 495.91800000 -8.16497000 -495.91800000
v -495.91800000 -495.91800000 -8.16497000
v -8.16497000 495.91800000 -495.91800000
v -495.91800000 495.91800000 8.16497000
v 495.91800000 -8.16497000 -495.91800000
v -495.91800000 -495.91800000 -8.16497000
vt 0.0000000e+0 1.6807200e-2
vt 0.0000000e+0 0.98219500
vt 1.1668600e-2 0.98727800
vt 1.1784300e-2 0.98723300
vt 1.1823100e-2 1.1597400e-2
vt 1.1824000e-2 0.98722400
vt 1.6922600e-2 1.00000000
vt 1.7032800e-2 0.0000000e+0
vt 0.98241300 0.0000000e+0
vt 0.98247000 1.00000000
vt 0.98745000 1.1598500e-2
vt 0.98745100 1.1599500e-2
vt 0.98745100 0.98722500
vt 0.98745800 0.98721600
vt 0.98746200 0.98722100
vt 1.00000000 1.6417100e-2
vt 1.00000000 0.98179600
vn -0.88810309 -0.32501762 0.32501762
vn -1.00000000 0.0000000e+0 0.0000000e+0
vn -0.88810309 -0.32501762 0.32501762
vn -0.88810309 -0.32501762 -0.32501762
vn -0.88810309 -0.32501762 0.32501762
vn -1.00000000 0.0000000e+0 0.0000000e+0
vn -1.00000000 0.0000000e+0 0.0000000e+0
vn -0.88810309 0.32501762 0.32501762
vn -0.88810309 0.32501762 0.32501762
vn -1.00000000 0.0000000e+0 0.0000000e+0
vn -1.00000000 0.0000000e+0 0.0000000e+0
vn -0.88810309 0.32501762 -0.32501762
vn -0.88810309 -0.32501762 -0.32501762
vn -0.88810309 -0.32501762 -0.32501762
vn -1.00000000 0.0000000e+0 0.0000000e+0
vn -0.88810309 0.32501762 -0.32501762
vn -0.88810309 0.32501762 -0.32501762
vn -0.88810309 0.32501762 0.32501762
vn -0.88810309 -0.32501762 0.32501762
vn -0.32501762 -0.88810309 0.32501762
vn -0.88810309 -0.32501762 0.32501762
vn -0.88810309 -0.32501762 0.32501762
vn -0.32501762 -0.32501762 -0.88810309
vn -0.88810309 -0.32501762 -0.32501762
vn -0.88810309 0.32501762 0.32501762
vn -0.88810309 0.32501762 -0.32501762
vn -0.32501762 0.32501762 -0.88810309
vn -0.88810309 0.32501762 -0.32501762
vn -0.88810309 0.32501762 -0.32501762
vn -0.32501762 0.88810309 -0.32501762
vn -0.32501762 -0.88810309 0.32501762
vn 0.0000000e+0 -1.00000000 0.0000000e+0
vn -0.32501762 -0.88810309 -0.32501762
vn -0.32501762 -0.88810309 0.32501762
vn 0.0000000e+0 -1.00000000 0.0000000e+0
vn -0.32501762 0.32501762 -0.88810309
vn -0.32501762 -0.32501762 -0.88810309
vn 0.0000000e+0 0.0000000e+0 -1.00000000
vn -0.32501762 -0.32501762 -0.88810309
vn -0.32501762 0.32501762 -0.88810309
vn 0.0000000e+0 1.00000000 0.0000000e+0
vn -0.32501762 0.88810309 0.32501762
vn 0.0000000e+0 1.00000000 0.0000000e+0
vn -0.32501762 0.88810309 -0.32501762
vn -0.32501762 0.88810309 -0.32501762
vn -0.32501762 -0.88810309 0.32501762
vn -0.32501762 -0.88810309 0.32501762
vn -0.32501762 -0.32501762 -0.88810309
vn -0.32501762 -0.88810309 -0.32501762
vn -0.32501762 -0.32501762 -0.88810309
vn -0.32501762 0.88810309 0.32501762
vn -0.32501762 -0.88810309 0.32501762
vn 0.32501762 -0.88810309 0.32501762
vn 0.0000000e+0 -1.00000000 0.0000000e+0
vn -0.32501762 -0.88810309 -0.32501762
vn 0.0000000e+0 -1.00000000 0.0000000e+0
vn 0.32501762 -0.88810309 -0.32501762
vn -0.32501762 -0.88810309 -0.32501762
vn 0.32501762 -0.88810309 -0.32501762
vn 0.0000000e+0 0.0000000e+0 -1.00000000
vn -0.32501762 -0.32501762 -0.88810309
vn 0.0000000e+0 0.0000000e+0 -1.00000000
vn 0.32501762 -0.32501762 -0.88810309
vn 0.32501762 -0.32501762 -0.88810309
vn 0.0000000e+0 0.0000000e+0 -1.00000000
vn 0.32501762 0.32501762 -0.88810309
vn -0.32501762 0.32501762 -0.88810309
vn 0.0000000e+0 0.0000000e+0 -1.00000000
vn 0.32501762 0.32501762 -0.88810309
vn -0.32501762 0.88810309 0.32501762
vn 0.0000000e+0 1.00000000 0.0000000e+0
vn 0.32501762 0.88810309 0.32501762
vn -0.32501762 0.88810309 0.32501762
vn 0.32501762 0.88810309 0.32501762
vn 0.32501762 0.88810309 -0.32501762
vn 0.0000000e+0 1.00000000 0.0000000e+0
vn -0.32501762 0.88810309 -0.32501762
vn 0.32501762 -0.88810309 0.32501762
vn 0.32501762 -0.88810309 0.32501762
vn 0.32501762 -0.88810309 -0.32501762
vn 0.32501762 -0.32501762 -0.88810309
vn 0.32501762 0.88810309 0.32501762
vn 0.32501762 0.88810309 -0.32501762
vn 0.32501762 0.32501762 -0.88810309
vn 0.32501762 0.88810309 -0.32501762
vn 0.0000000e+0 -1.00000000 0.0000000e+0
vn 0.32501762 -0.88810309 0.32501762
vn 0.32501762 -0.88810309 0.32501762
vn 0.32501762 -0.88810309 -0.32501762
vn 0.0000000e+0 -1.00000000 0.0000000e+0
vn 0.32501762 0.32501762 -0.88810309
vn 0.0000000e+0 0.0000000e+0 -1.00000000
vn 0.32501762 -0.32501762 -0.88810309
vn 0.0000000e+0 1.00000000 0.0000000e+0
vn 0.32501762 0.88810309 -0.32501762
vn 0.0000000e+0 1.00000000 0.0000000e+0
vn 0.32501762 0.88810309 0.32501762
vn 0.32501762 0.88810309 -0.32501762
vn 0.32501762 -0.88810309 0.32501762
vn 0.88810309 -0.32501762 0.32501762
vn 0.88810309 -0.32501762 0.32501762
vn 0.32501762 -0.88810309 -0.32501762
vn 0.88810309 -0.32501762 -0.32501762
vn 0.32501762 -0.88810309 -0.32501762
vn 0.88810309 -0.32501762 0.32501762
vn 0.88810309 0.32501762 0.32501762
vn 0.88810309 0.32501762 0.32501762
vn 0.32501762 0.32501762 -0.88810309
vn 0.88810309 0.32501762 -0.32501762
vn 0.32501762 0.32501762 -0.88810309
vn 0.32501762 0.88810309 0.32501762
vn 0.88810309 0.32501762 0.32501762
vn 0.32501762 0.88810309 0.32501762
vn 0.88810309 0.32501762 -0.32501762
vn 0.32501762 0.88810309 -0.32501762
vn 0.88810309 0.32501762 -0.32501762
vn 0.88810309 -0.32501762 -0.32501762
vn 0.88810309 -0.32501762 0.32501762
vn 1.00000000 0.0000000e+0 0.0000000e+0
vn 0.88810309 -0.32501762 -0.32501762
vn 1.00000000 0.0000000e+0 0.0000000e+0
vn 0.88810309 -0.32501762 0.32501762
vn 0.88810309 -0.32501762 0.32501762
vn 0.88810309 0.32501762 0.32501762
vn 1.00000000 0.0000000e+0 0.0000000e+0
vn 0.88810309 0.32501762 -0.32501762
vn 1.00000000 0.0000000e+0 0.0000000e+0
vn 0.88810309 -0.32501762 -0.32501762
vn 0.88810309 0.32501762 -0.32501762
vn 0.88810309 0.32501762 0.32501762
vn 1.00000000 0.0000000e+0 0.0000000e+0
vn 0.88810309 0.32501762 -0.32501762
vn 0.88810309 0.32501762 0.32501762
vn 1.00000000 0.0000000e+0 0.0000000e+0
vn -0.32501762 0.32501762 -0.88810309
vn -0.32501762 0.32501762 -0.88810309
vn -0.88810309 0.32501762 0.32501762
vn -0.88810309 0.32501762 0.32501762
vn 0.32501762 -0.32501762 -0.88810309
vn 0.32501762 -0.32501762 -0.88810309
vn -0.88810309 -0.32501762 -0.32501762
vn -0.88810309 -0.32501762 -0.32501762
vn -0.32501762 0.88810309 -0.32501762
vn -0.32501762 0.88810309 -0.32501762
vn -0.32501762 0.88810309 0.32501762
vn -0.32501762 0.88810309 0.32501762
vn 0.88810309 -0.32501762 -0.32501762
vn 0.88810309 -0.32501762 -0.32501762
vn -0.32501762 -0.88810309 -0.32501762
vn -0.32501762 -0.88810309 -0.32501762
g oolite_coriolis.obj_Coriolis_Hull
usemtl Coriolis_Hull
s 1
f 2/6/7 3/11/11 1/13/2
f 2/6/6 4/5/15 3/11/10
f 9/10/27 41/7/135 12/15/36
f 11/14/34 14/16/47 5/17/20
f 11/14/31 17/11/52 14/16/46
f 11/15/33 48/10/150 18/3/58
f 12/14/37 15/16/48 7/17/23
f 12/14/39 19/11/61 15/16/50
f 12/15/40 41/7/136 20/3/67
f 13/14/44 45/16/143 10/17/30
f 13/15/42 46/10/146 21/3/73
f 18/3/55 48/10/149 15/7/49
f 19/12/63 43/8/139 24/9/81
f 20/4/66 34/1/108 28/5/91
f 21/3/70 46/10/145 16/7/51
f 22/11/77 45/16/144 13/14/45
f 26/2/84 34/1/110 20/4/69
f 28/5/93 43/8/140 19/12/64
f 37/13/121 40/5/134 38/11/125
f 39/6/127 40/5/131 37/13/119
s 2
f 1/15/1 6/7/21 2/3/5
f 2/4/8 42/1/137 4/5/18
f 3/11/13 44/17/141 1/14/4
f 4/5/17 9/9/28 3/12/12
f 4/5/16 10/8/29 9/9/26
f 5/10/19 6/7/22 1/15/3
f 7/16/24 44/17/142 3/11/14
f 8/2/25 42/1/138 2/4/9
f 12/6/38 20/5/65 19/13/60
f 17/12/53 27/5/88 23/9/79
f 18/4/59 31/1/104 27/5/89
f 20/5/68 28/11/92 19/13/62
f 21/4/74 35/1/113 29/5/97
f 22/12/75 29/5/95 26/9/83
f 24/2/80 31/1/102 18/4/57
f 25/2/82 35/1/111 21/4/72
f 27/5/87 30/8/99 23/9/78
f 29/5/98 36/8/115 26/9/85
f 30/17/101 38/11/123 32/16/105
f 31/10/103 47/7/147 37/15/117
f 33/9/106 40/5/130 35/8/112
f 36/1/114 39/4/126 34/2/109
f 36/1/116 40/5/132 39/4/129
f 37/14/118 38/11/122 30/17/100
f 37/15/120 47/7/148 39/3/128
f 38/12/124 40/5/133 33/9/107
s 3
f 11/6/35 27/11/90 17/13/54
f 13/6/43 29/11/96 22/13/76
f 18/5/56 27/11/86 11/6/32
f 21/5/71 29/11/94 13/6/41
