# Exported from Wings 3D 1.5.4
mtllib oolite_splinter.mtl
o oolite_splinter.obj
#14 vertices, 24 faces
v 1.66458000 0.46288000 -5.91344000
v 4.09851000 3.15242000 -0.64018000
v -3.10140000 2.12235000 -4.83871000
v 2.04577000 -3.64319000 -1.27066000
v -0.58932000 -2.34567000 -6.79060000
v -0.35336000 -5.65789000 -2.36844000
v -4.88097000 -1.26113000 -5.43830000
v 3.81738000 0.66284000 6.63100000
v 0.72177000 5.65789000 4.41650000
v 0.62366000 3.72017000 6.79060000
v -5.02608000 4.59260000 4.63996000
v 5.02608000 -0.73210000 4.21292000
v 1.29956000 -3.27048000 3.88750000
v -4.15329000 -0.74058000 5.89596000
vt 1.9000000e-4 0.43407000
vt 0.18790000 0.42624000
vt 0.20530000 0.63334000
vt 0.21666000 3.4200000e-2
vt 0.38823000 0.41373000
vt 0.40151000 0.59794000
vt 0.40770000 0.18559000
vt 0.41046000 0.79211000
vt 0.43663000 5.0400000e-3
vt 0.49630000 0.25707000
vt 0.50899000 0.50797000
vt 0.51367000 0.79568000
vt 0.56460000 0.99614000
vt 0.66032000 0.63980000
vt 0.79491000 0.43313000
vt 0.86544000 0.64655000
vt 0.87451000 0.81089000
vt 0.99161000 0.87794000
vt 0.99703000 0.64041000
vn 0.75473716 -0.45943223 -0.46828821
vn -8.4838746e-2 0.35844258 -0.92968882
vn 0.92126557 -0.25069739 -0.29735595
vn 0.17762788 0.84105612 -0.51095298
vn 0.13735693 0.88147625 -0.45181046
vn 0.91157495 -0.24470642 -0.33037839
vn 0.91157495 -0.24470642 -0.33037839
vn 0.83171891 0.51461730 0.20835711
vn 0.13735693 0.88147625 -0.45181046
vn 0.83171891 0.51461730 0.20835711
vn -0.82359434 0.48522121 -0.29368817
vn 2.9982709e-2 0.91536276 -0.40151222
vn -0.15421672 0.32144423 -0.93428626
vn 2.9982709e-2 0.91536276 -0.40151222
vn -0.15421672 0.32144423 -0.93428626
vn 2.9982709e-2 0.91536276 -0.40151222
vn 0.72131044 -0.51331255 -0.46499622
vn 0.91157495 -0.24470642 -0.33037839
vn 0.91157495 -0.24470642 -0.33037839
vn 0.62015814 -0.78065178 7.7373556e-2
vn 0.72131044 -0.51331255 -0.46499622
vn -0.36288790 -0.75500999 -0.54614310
vn 0.72131044 -0.51331255 -0.46499622
vn -0.15421672 0.32144423 -0.93428626
vn -0.15421672 0.32144423 -0.93428626
vn 0.72131044 -0.51331255 -0.46499622
vn -0.36288790 -0.75500999 -0.54614310
vn 0.58356854 -0.80258733 0.12369856
vn -0.25868140 -0.87773741 0.40331249
vn 0.58356854 -0.80258733 0.12369856
vn -0.72123342 -0.68829606 7.7915951e-2
vn 0.68497592 -0.56512356 -0.45982969
vn -0.82359434 0.48522121 -0.29368817
vn -0.36288790 -0.75500999 -0.54614310
vn -0.98694691 -0.14502544 7.0024379e-2
vn -0.72123342 -0.68829606 7.7915951e-2
vn -0.22263805 0.28245186 -0.93308802
vn 0.60469244 0.60460334 0.51846104
vn 2.7975916e-2 -0.58384811 0.81138076
vn -6.9414825e-2 -0.12418291 0.98982836
vn 0.41336288 -0.68391426 0.60115922
vn 0.83171891 0.51461730 0.20835711
vn 0.83171891 0.51461730 0.20835711
vn 0.60469244 0.60460334 0.51846104
vn -4.5144686e-2 0.93928243 -0.34016244
vn -0.11871789 0.77163137 0.62489286
vn 0.77820524 0.58431704 0.23015258
vn -4.5144686e-2 0.93928243 -0.34016244
vn -0.32847589 0.16525204 0.92994374
vn 0.60469244 0.60460334 0.51846104
vn -6.9414825e-2 -0.12418291 0.98982836
vn -0.11871789 0.77163137 0.62489286
vn -0.82359434 0.48522121 -0.29368817
vn -0.32847589 0.16525204 0.92994374
vn -0.98694691 -0.14502544 7.0024379e-2
vn -0.11871789 0.77163137 0.62489286
vn -0.18541135 0.94105832 -0.28289906
vn 0.58356854 -0.80258733 0.12369856
vn 0.90077195 -0.23841684 -0.36299767
vn 0.41336288 -0.68391426 0.60115922
vn 0.58356854 -0.80258733 0.12369856
vn 0.87841514 0.44069935 0.18485378
vn 0.54466452 -0.82133984 0.16953297
vn 2.7975916e-2 -0.58384811 0.81138076
vn -0.25868140 -0.87773741 0.40331249
vn 0.41336288 -0.68391426 0.60115922
vn -0.32847589 0.16525204 0.92994374
vn 2.7975916e-2 -0.58384811 0.81138076
vn -0.98694691 -0.14502544 7.0024379e-2
vn -6.9414825e-2 -0.12418291 0.98982836
vn -0.25868140 -0.87773741 0.40331249
vn -0.72123342 -0.68829606 7.7915951e-2
g oolite_splinter.obj_Oolite_Splinter
usemtl Oolite_Splinter
s 1
f 4/10/20 12/11/61 6/7/30
f 6/7/27 7/4/34 5/9/22
f 7/18/33 11/13/53 3/17/11
f 8/6/39 14/2/68 13/5/64
f 9/12/44 10/8/50 8/6/38
f 11/1/54 14/2/67 10/3/49
f 12/11/58 13/5/63 6/7/28
s 2
f 2/14/8 9/12/47 8/6/42
f 4/15/17 5/19/23 1/16/1
f 4/10/21 6/7/32 5/9/26
f 6/7/31 14/2/72 7/4/36
f 8/6/43 12/11/62 2/14/10
f 9/12/46 11/13/56 10/8/52
f 10/3/51 14/2/70 8/6/40
s 3
f 1/16/2 5/19/24 3/17/13
f 2/14/7 4/15/19 1/16/3
f 2/14/6 12/11/59 4/15/18
f 5/19/25 7/18/37 3/17/15
f 7/4/35 14/2/69 11/1/55
f 8/6/41 13/5/66 12/11/60
f 13/5/65 14/2/71 6/7/29
s 4
f 1/16/4 3/17/16 2/14/9
f 3/17/12 9/12/45 2/14/5
f 3/17/14 11/13/57 9/12/48
