# Exported from Wings 3D 1.5.4
mtllib oolite_barrel2.mtl
o baz2.obj
#30 vertices, 56 faces
v 4.80024000 2.58743000 -0.67216000
v 4.45024000 2.88947000 -0.47149000
v 4.45024000 0.28224000 -2.79666000
v 4.45024000 2.71791000 -1.01051000
v -4.45024000 0.28224000 -2.79666000
v -4.45024000 2.88947000 -0.47149000
v -4.45024000 2.71791000 -1.01051000
v -4.80024000 2.58743000 -0.67216000
v 4.80024000 0.0000000e+0 -2.56960000
v 4.80024000 -2.58743000 -0.67216000
v 4.45024000 -0.28224000 -2.79666000
v 4.45024000 -2.71791000 -1.01051000
v 4.45024000 -2.88947000 -0.47149000
v -4.45024000 -0.28224000 -2.79666000
v -4.45024000 -2.88947000 -0.47149000
v -4.80024000 0.0000000e+0 -2.56960000
v -4.45024000 -2.71791000 -1.01051000
v -4.80024000 -2.58743000 -0.67216000
v 4.80024000 1.54782000 2.44665000
v 4.45024000 1.91077000 2.46461000
v 4.45024000 1.45009000 2.79666000
v -4.45024000 1.91077000 2.46461000
v -4.45024000 1.45009000 2.79666000
v -4.80024000 1.54782000 2.44665000
v 4.80024000 -1.54782000 2.44665000
v 4.45024000 -1.91077000 2.46461000
v 4.45024000 -1.45009000 2.79666000
v -4.45024000 -1.45009000 2.79666000
v -4.45024000 -1.91077000 2.46461000
v -4.80024000 -1.54782000 2.44665000
vt 3.4000000e-3 0.45057000
vt 3.4000000e-3 0.99364000
vt 8.3800000e-3 0.47799000
vt 8.3800000e-3 0.96623000
vt 0.17415000 0.47799000
vt 0.17415000 0.96623000
vt 0.17985000 0.45057000
vt 0.17985000 0.99364000
vt 0.18298000 0.18033000
vt 0.18905000 0.45418000
vt 0.18905000 0.99003000
vt 0.19783000 0.45057000
vt 0.19783000 0.99364000
vt 0.20526000 0.47799000
vt 0.20526000 0.96623000
vt 0.24015000 0.35185000
vt 0.32527000 7.5980000e-2
vt 0.37474000 0.47799000
vt 0.37474000 0.96623000
vt 0.37862000 0.45057000
vt 0.37862000 0.99364000
vt 0.39071000 0.45418000
vt 0.39071000 0.99003000
vt 0.40045000 0.45057000
vt 0.40045000 0.99364000
vt 0.40632000 0.47799000
vt 0.40632000 0.96623000
vt 0.41039000 0.35185000
vt 0.46756000 0.18033000
vt 0.56532000 0.47799000
vt 0.56532000 0.96623000
vt 0.57069000 0.45057000
vt 0.57069000 0.99364000
vt 0.58064000 0.45418000
vt 0.58064000 0.99003000
vt 0.58806000 0.24752000
vt 0.59103000 0.45057000
vt 0.59103000 0.99364000
vt 0.59628000 0.47799000
vt 0.59628000 0.96623000
vt 0.64523000 7.6010000e-2
vt 0.73035000 0.35187000
vt 0.76684000 0.47799000
vt 0.76684000 0.96623000
vt 0.77182000 0.45057000
vt 0.77182000 0.99364000
vt 0.78211000 0.45418000
vt 0.78211000 0.99003000
vt 0.79201000 0.45057000
vt 0.79201000 0.99364000
vt 0.79794000 0.47799000
vt 0.79794000 0.96623000
vt 0.81547000 7.6010000e-2
vt 0.87264000 0.24752000
vt 0.96418000 0.47799000
vt 0.96418000 0.96623000
vt 0.96846000 0.45057000
vt 0.96846000 0.99364000
vt 0.97947000 0.45418000
vt 0.97947000 0.99003000
vt 0.99523000 0.47799000
vt 0.99523000 0.96623000
vn 0.70711533 0.41815096 -0.57020845
vn 1.00000000 0.0000000e+0 0.0000000e+0
vn 0.70710759 0.67081941 0.22360719
vn 1.00000000 0.0000000e+0 0.0000000e+0
vn 0.54406496 0.79952281 -0.25447318
vn 1.00000000 0.0000000e+0 0.0000000e+0
vn 0.70710759 0.67081941 0.22360719
vn 0.0000000e+0 0.94868330 0.31622777
vn 0.0000000e+0 0.95289838 -0.30328976
vn 0.70710449 0.67082257 0.22360752
vn 0.54406496 0.79952281 -0.25447318
vn 0.54424673 0.0000000e+0 -0.83892520
vn 0.0000000e+0 0.59136194 -0.80640626
vn 0.0000000e+0 0.0000000e+0 -1.00000000
vn 0.70711547 0.41815090 -0.57020833
vn 0.0000000e+0 0.59136194 -0.80640626
vn 0.70711540 0.41815093 -0.57020839
vn 0.0000000e+0 0.59136194 -0.80640626
vn 0.0000000e+0 0.95289838 -0.30328976
vn 0.0000000e+0 0.95289838 -0.30328976
vn 0.70711540 0.41815093 -0.57020839
vn 0.54406496 0.79952281 -0.25447318
vn 0.0000000e+0 0.0000000e+0 -1.00000000
vn 0.0000000e+0 0.59136194 -0.80640626
vn -0.54424673 0.0000000e+0 -0.83892520
vn 0.0000000e+0 0.59136194 -0.80640626
vn -0.70711547 0.41815090 -0.57020833
vn 0.0000000e+0 0.0000000e+0 -1.00000000
vn -0.54406496 0.79952281 -0.25447318
vn 0.0000000e+0 0.94868330 0.31622777
vn 0.0000000e+0 0.94868330 0.31622777
vn 0.0000000e+0 0.95289838 -0.30328976
vn -0.70710449 0.67082257 0.22360752
vn 0.0000000e+0 0.95289838 -0.30328976
vn -0.54406496 0.79952281 -0.25447318
vn 0.0000000e+0 0.59136194 -0.80640626
vn -0.70711540 0.41815093 -0.57020839
vn -0.70711540 0.41815093 -0.57020839
vn 0.0000000e+0 0.95289838 -0.30328976
vn -1.00000000 0.0000000e+0 0.0000000e+0
vn -0.54406496 0.79952281 -0.25447318
vn -1.00000000 0.0000000e+0 0.0000000e+0
vn -0.70710759 0.67081941 0.22360719
vn -0.70711533 0.41815096 -0.57020845
vn -1.00000000 0.0000000e+0 0.0000000e+0
vn -0.70710759 0.67081941 0.22360719
vn 0.54424673 0.0000000e+0 -0.83892520
vn 0.70711540 0.41815093 -0.57020839
vn 0.70711540 -0.41815093 -0.57020839
vn 0.70711540 0.41815093 -0.57020839
vn 1.00000000 0.0000000e+0 0.0000000e+0
vn 0.70711540 -0.41815093 -0.57020839
vn 0.54406496 -0.79952281 -0.25447318
vn 0.70710759 -0.67081941 0.22360719
vn 1.00000000 0.0000000e+0 0.0000000e+0
vn 0.70710759 -0.67081941 0.22360719
vn 1.00000000 0.0000000e+0 0.0000000e+0
vn 0.70711533 -0.41815096 -0.57020845
vn 0.0000000e+0 -0.59136194 -0.80640626
vn 0.0000000e+0 0.0000000e+0 -1.00000000
vn 0.54424673 0.0000000e+0 -0.83892520
vn 0.0000000e+0 -0.59136194 -0.80640626
vn 0.70711547 -0.41815090 -0.57020833
vn 0.0000000e+0 0.0000000e+0 -1.00000000
vn 0.0000000e+0 -0.59136194 -0.80640626
vn 0.54406496 -0.79952281 -0.25447318
vn 0.70711540 -0.41815093 -0.57020839
vn 0.0000000e+0 -0.95289838 -0.30328976
vn 0.70711540 -0.41815093 -0.57020839
vn 0.0000000e+0 -0.94868330 0.31622777
vn 0.54406496 -0.79952281 -0.25447318
vn 0.0000000e+0 -0.95289838 -0.30328976
vn 0.0000000e+0 -0.94868330 0.31622777
vn 0.0000000e+0 -0.95289838 -0.30328976
vn 0.70710449 -0.67082257 0.22360752
vn 0.0000000e+0 0.0000000e+0 -1.00000000
vn -0.54424673 0.0000000e+0 -0.83892520
vn 0.0000000e+0 -0.59136194 -0.80640626
vn -0.70711547 -0.41815090 -0.57020833
vn 0.0000000e+0 -0.94868330 0.31622777
vn -0.70710449 -0.67082257 0.22360752
vn 0.0000000e+0 -0.95289838 -0.30328976
vn -0.54406496 -0.79952281 -0.25447318
vn -0.70711540 -0.41815093 -0.57020839
vn -0.54424673 0.0000000e+0 -0.83892520
vn -0.70711540 0.41815093 -0.57020839
vn -1.00000000 0.0000000e+0 0.0000000e+0
vn -0.70711540 -0.41815093 -0.57020839
vn -0.70711540 0.41815093 -0.57020839
vn -0.70711540 -0.41815093 -0.57020839
vn 0.0000000e+0 -0.59136194 -0.80640626
vn 0.0000000e+0 -0.95289838 -0.30328976
vn 0.0000000e+0 -0.59136194 -0.80640626
vn -0.54406496 -0.79952281 -0.25447318
vn -0.70711540 -0.41815093 -0.57020839
vn 0.0000000e+0 -0.95289838 -0.30328976
vn -0.70710759 -0.67081941 0.22360719
vn -0.70711533 -0.41815096 -0.57020845
vn -1.00000000 0.0000000e+0 0.0000000e+0
vn -0.70710759 -0.67081941 0.22360719
vn -1.00000000 0.0000000e+0 0.0000000e+0
vn -0.54406496 -0.79952281 -0.25447318
vn 0.54379916 0.49070822 0.68079947
vn 1.00000000 0.0000000e+0 0.0000000e+0
vn 0.70711688 0.0000000e+0 0.70709668
vn 0.70711069 0.67081626 0.22360685
vn 0.54379916 0.49070822 0.68079947
vn 0.0000000e+0 0.94868330 0.31622777
vn 0.0000000e+0 0.94868330 0.31622777
vn 0.0000000e+0 0.58472262 0.81123330
vn 0.70710759 0.67081941 0.22360719
vn 0.0000000e+0 0.58472262 0.81123330
vn 0.70710759 0.67081941 0.22360719
vn 0.0000000e+0 0.0000000e+0 1.00000000
vn 0.54379916 0.49070822 0.68079947
vn 0.0000000e+0 0.58472262 0.81123330
vn 0.70711688 0.0000000e+0 0.70709668
vn 0.70711688 0.0000000e+0 0.70709668
vn -0.54379916 0.49070822 0.68079947
vn -0.70710759 0.67081941 0.22360719
vn 0.0000000e+0 0.94868330 0.31622777
vn 0.0000000e+0 0.58472262 0.81123330
vn -0.70710759 0.67081941 0.22360719
vn -0.70711688 0.0000000e+0 0.70709668
vn -0.54379916 0.49070822 0.68079947
vn 0.0000000e+0 0.0000000e+0 1.00000000
vn -0.70711688 0.0000000e+0 0.70709668
vn 0.0000000e+0 0.0000000e+0 1.00000000
vn 0.0000000e+0 0.58472262 0.81123330
vn 0.0000000e+0 0.58472262 0.81123330
vn -1.00000000 0.0000000e+0 0.0000000e+0
vn -0.54379916 0.49070822 0.68079947
vn -0.70711688 0.0000000e+0 0.70709668
vn -0.70711069 0.67081626 0.22360685
vn 0.70711069 -0.67081626 0.22360685
vn 1.00000000 0.0000000e+0 0.0000000e+0
vn 0.54379916 -0.49070822 0.68079947
vn 1.00000000 0.0000000e+0 0.0000000e+0
vn 0.70711688 0.0000000e+0 0.70709668
vn 0.70711688 0.0000000e+0 0.70709668
vn 0.0000000e+0 -0.58472262 0.81123330
vn 0.70710759 -0.67081941 0.22360719
vn 0.0000000e+0 -0.94868330 0.31622777
vn 0.54379916 -0.49070822 0.68079947
vn 0.70710759 -0.67081941 0.22360719
vn 0.0000000e+0 -0.58472262 0.81123330
vn 0.0000000e+0 0.0000000e+0 1.00000000
vn 0.0000000e+0 0.0000000e+0 1.00000000
vn 0.54379916 -0.49070822 0.68079947
vn 0.0000000e+0 -0.58472262 0.81123330
vn 0.70711688 0.0000000e+0 0.70709668
vn -0.70711688 0.0000000e+0 0.70709668
vn -0.54379916 -0.49070822 0.68079947
vn 0.0000000e+0 0.0000000e+0 1.00000000
vn 0.0000000e+0 -0.58472262 0.81123330
vn -0.70710759 -0.67081941 0.22360719
vn 0.0000000e+0 -0.94868330 0.31622777
vn 0.0000000e+0 -0.58472262 0.81123330
vn -0.70710759 -0.67081941 0.22360719
vn -0.54379916 -0.49070822 0.68079947
vn 0.0000000e+0 -0.94868330 0.31622777
vn 0.0000000e+0 -0.58472262 0.81123330
vn -0.70711069 -0.67081626 0.22360685
vn -1.00000000 0.0000000e+0 0.0000000e+0
vn -0.70711688 0.0000000e+0 0.70709668
vn -1.00000000 0.0000000e+0 0.0000000e+0
vn -0.70711688 0.0000000e+0 0.70709668
vn -0.54379916 -0.49070822 0.68079947
g baz2.obj_Hull
usemtl Hull
s 1
f 1/29/6 10/9/57 9/17/51
f 1/29/4 25/16/138 10/9/55
f 4/6/19 6/14/32 2/15/9
f 4/6/20 7/5/39 6/14/34
f 8/54/40 30/41/164 24/53/131
f 9/60/47 11/56/61 3/62/12
f 10/48/53 13/44/71 12/52/66
f 11/56/62 17/51/93 14/55/78
f 12/52/65 17/51/91 11/56/59
f 13/44/70 29/39/157 15/43/80
f 14/55/77 16/59/85 5/61/25
f 15/43/83 18/47/102 17/51/94
f 16/42/87 18/36/101 8/54/45
f 18/36/99 30/41/166 8/54/42
f 19/28/104 25/16/136 1/29/2
f 20/19/110 23/26/129 21/27/116
f 22/18/122 23/26/130 20/19/112
f 25/35/137 27/31/149 26/40/144
f 26/40/143 29/39/161 13/44/73
f 28/30/153 30/34/168 29/39/160
s 2
f 1/11/5 4/6/22 2/15/11
f 3/4/13 5/3/26 4/6/18
f 5/3/24 7/5/36 4/6/16
f 6/14/30 20/19/108 2/15/8
f 6/14/31 22/18/121 20/19/109
f 7/5/35 8/10/41 6/14/29
f 9/58/49 12/52/67 11/56/63
f 10/50/58 12/52/69 9/58/52
f 10/46/56 26/40/145 13/44/75
f 13/44/74 17/51/96 12/52/68
f 14/55/79 17/51/95 16/57/88
f 15/43/82 17/51/92 13/44/72
f 15/43/81 29/39/159 18/45/100
f 17/51/90 18/49/98 16/57/84
f 21/27/117 25/33/139 19/25/105
f 21/27/118 27/31/151 25/33/140
f 23/26/124 30/32/165 28/30/152
f 24/24/133 30/32/167 23/26/127
f 25/38/135 26/40/142 10/46/54
f 27/31/146 29/39/158 26/40/141
f 28/30/155 29/39/162 27/31/150
f 29/39/156 30/37/163 18/45/97
s 3
f 1/8/1 9/2/48 4/6/17
f 3/62/14 11/56/64 5/61/28
f 4/6/21 9/2/50 3/4/15
f 5/3/27 16/1/89 7/5/38
f 7/5/37 16/1/86 8/7/44
f 8/12/46 22/18/123 6/14/33
f 8/12/43 24/20/134 22/18/120
f 11/56/60 14/55/76 5/61/23
f 20/19/107 21/27/115 19/23/103
f 23/26/126 27/31/147 21/27/114
f 23/26/128 28/30/154 27/31/148
s 4
f 1/13/7 20/19/113 19/21/106
f 2/15/10 20/19/111 1/13/3
f 22/18/119 24/22/132 23/26/125
